<svg width="142" height="48" viewBox="0 0 142 48" fill="none" xmlns="http://www.w3.org/2000/svg">
<g clip-path="url(#clip0_67_121)">
<mask id="mask0_67_121" style="mask-type:luminance" maskUnits="userSpaceOnUse" x="0" y="0" width="48" height="48">
<path d="M48 0H0V48H48V0Z" fill="white"/>
</mask>
<g mask="url(#mask0_67_121)">
<path d="M47.9986 11.9059C47.9275 5.31754 42.5641 0 35.9606 0H12.0393C9.34162 0 6.85153 0.88765 4.84497 2.38565V34.0108C4.84497 39.9206 9.63563 44.71 15.5438 44.71H44.2307C46.5522 42.5152 48 39.4064 48 35.9603V12.0397C48 11.9951 48 11.9505 47.9986 11.9059ZM37.2579 23.5457C36.2017 24.2411 35.1649 24.9671 34.1561 25.7251L34.5476 26.0791L38.9732 30.084C39.6616 30.7068 39.748 31.7352 39.1655 32.379L38.172 33.4785L38.0062 33.661C37.4237 34.3048 36.3926 34.3215 35.7042 33.6973L30.6126 29.089L30.3659 28.866C29.9047 29.2883 29.4518 29.7216 29.0087 30.1648C28.9739 30.1996 28.9376 30.2331 28.9014 30.2623C28.5628 30.5536 28.1503 30.6915 27.7435 30.6915C27.0718 30.6915 26.4113 30.3181 26.102 29.6339L23.1869 23.1778C23.0197 22.8086 22.493 22.7974 22.3188 23.1653C21.6095 24.6675 19.6531 25.3684 18.105 24.3358C17.8319 24.1533 17.5629 23.9638 17.2787 23.8007C14.8541 22.4072 13.2349 19.7694 13.2948 16.7581C13.3241 15.2893 13.7602 13.9153 14.4946 12.742C15.8657 10.5487 18.2792 9.06323 21.0243 8.99634C23.1493 8.94478 25.0862 9.72931 26.5367 11.042C26.7207 11.2064 26.8962 11.382 27.0621 11.5645C27.2627 11.343 27.4759 11.1353 27.7016 10.9389C29.1564 9.67358 31.0766 8.92806 33.1723 8.99774C37.3234 9.13569 40.6983 12.5177 40.8265 16.6689C40.9004 19.0364 39.9347 21.1796 38.3531 22.6776C38.0145 22.9981 37.6481 23.2879 37.2579 23.5457Z" fill="#FF92A5"/>
<path d="M30.6125 29.089C30.0942 29.5238 29.5855 29.9711 29.0867 30.4295C28.6255 30.8518 28.174 31.2838 27.7309 31.7269C27.3728 32.085 26.9157 32.2536 26.4642 32.2536C25.7926 32.2536 25.1321 31.8802 24.8228 31.196L21.9077 24.7413C21.7404 24.3707 21.2137 24.3609 21.0409 24.7274C20.3303 26.2296 18.3739 26.9319 16.8272 25.8979C16.554 25.7154 16.2851 25.5273 16.0009 25.3628C13.5749 23.9707 11.9571 21.3329 12.017 18.3215C12.0616 16.1338 13.0063 14.1536 14.4945 12.742C13.7602 13.9153 13.324 15.2893 13.2948 16.7581C13.2349 19.7694 14.854 22.4073 17.2786 23.8007C17.5629 23.9638 17.8318 24.1533 18.105 24.3358C19.6531 25.3684 21.6095 24.6675 22.3187 23.1653C22.4929 22.7974 23.0196 22.8086 23.1868 23.1778L26.1019 29.6339C26.4113 30.3181 27.0718 30.6915 27.7434 30.6915C28.1503 30.6915 28.5628 30.5536 28.9014 30.2623C28.9376 30.2331 28.9738 30.1996 29.0087 30.1648C29.4518 29.7217 29.9046 29.2883 30.3659 28.8661L30.6125 29.089Z" fill="#BB004F"/>
<path d="M38.3531 22.6776C37.7469 23.6488 36.9359 24.4794 35.98 25.1078C35.4979 25.4255 35.0199 25.7488 34.5476 26.0791L34.156 25.7251C35.1649 24.9671 36.2016 24.2411 37.2578 23.5457C37.648 23.2879 38.0145 22.9981 38.3531 22.6776Z" fill="#BB004F"/>
<path d="M38.172 33.4785C38.1079 33.6443 38.0131 33.8018 37.8877 33.9411L36.7283 35.2231C36.1445 35.8669 35.1147 35.8837 34.425 35.2608L29.0867 30.4295L28.9014 30.2623C28.9376 30.2331 28.9738 30.1996 29.0087 30.1648C29.4518 29.7217 29.9046 29.2883 30.3659 28.8661L30.6125 29.089L35.7042 33.6973C36.3925 34.3216 37.4237 34.3048 38.0061 33.661L38.172 33.4785Z" fill="#BB004F"/>
<path d="M39.1655 32.379L38.172 33.4785L38.0062 33.661C37.4237 34.3048 36.3926 34.3216 35.7042 33.6973L30.6126 29.089L30.3659 28.8661C29.9047 29.2883 29.4518 29.7217 29.0087 30.1648C28.9739 30.1996 28.9376 30.2331 28.9014 30.2623C28.5628 30.5536 28.1503 30.6915 27.7435 30.6915C27.0718 30.6915 26.4113 30.3181 26.102 29.6339L23.1869 23.1778C23.0197 22.8086 22.493 22.7974 22.3188 23.1653C21.6095 24.6675 19.6531 25.3684 18.105 24.3358C17.8319 24.1533 17.5629 23.9638 17.2787 23.8007C14.8541 22.4072 13.2349 19.7694 13.2948 16.7581C13.3241 15.2893 13.7602 13.9153 14.4946 12.742C15.8657 10.5487 18.2792 9.06324 21.0243 8.99635C23.1493 8.94479 25.0862 9.72933 26.5367 11.042C26.7207 11.2064 26.8962 11.382 27.0621 11.5645C27.2627 11.343 27.4759 11.1353 27.7016 10.9389C29.1564 9.67359 31.0766 8.92807 33.1723 8.99775C37.3234 9.1357 40.6983 12.5177 40.8265 16.6689C40.9004 19.0364 39.9347 21.1796 38.3531 22.6776C38.0145 22.9981 37.6481 23.2879 37.2579 23.5457C36.2017 24.2411 35.1649 24.9671 34.1561 25.7251L34.5476 26.0791L38.9732 30.084C39.6616 30.7068 39.748 31.7352 39.1655 32.379Z" fill="white"/>
<path d="M36.8468 17.9049C37.2035 18.2616 37.2035 18.8399 36.8468 19.1953C36.6684 19.3736 36.4357 19.4628 36.2016 19.4628C35.9675 19.4628 35.7348 19.3736 35.5564 19.1953L33.7826 17.4214L32.0087 19.1953C31.8304 19.3736 31.5963 19.4628 31.3622 19.4628C31.1295 19.4628 30.8954 19.3736 30.717 19.1953C30.3603 18.8399 30.3603 18.2616 30.717 17.9049L32.4909 16.131L30.717 14.3571C30.3603 14.0003 30.3603 13.422 30.717 13.0653C31.0737 12.71 31.652 12.71 32.0087 13.0653L33.7826 14.8392L35.5564 13.0653C35.9132 12.71 36.49 12.71 36.8468 13.0653C37.2035 13.422 37.2035 14.0003 36.8468 14.3571L35.0729 16.131L36.8468 17.9049Z" fill="#FF4466"/>
<path d="M44.2307 44.71C42.0737 46.7487 39.1628 48 35.9606 48H12.0394C5.39124 48 0 42.61 0 35.9603V12.0397C0 8.08779 1.90484 4.58039 4.84501 2.38565V34.0108C4.84501 39.9206 9.63567 44.71 15.5439 44.71H44.2307Z" fill="#BB004F"/>
</g>
<path opacity="0.9" d="M65.5039 32.5352C64.0508 33.832 62.3164 34.4805 60.3008 34.4805C59.082 34.4805 58.2109 34.2227 57.6875 33.707C57.3906 33.4258 57.2422 32.9297 57.2422 32.2188C57.2422 31.125 58.0742 30.418 59.7383 30.0977C60.2617 29.9961 60.8906 29.9453 61.625 29.9453C62.3594 29.9453 63.3633 30.082 64.6367 30.3555C65.3164 29.5977 66.125 28.4844 67.0625 27.0156C68.0078 25.5391 68.7539 24.4023 69.3008 23.6055C69.8477 22.8086 70.4688 21.9961 71.1641 21.168C71.8594 20.332 72.5859 19.5781 73.3438 18.9062C74.8828 17.5312 76.4062 16.8438 77.9141 16.8438C78.5859 16.8438 79.0703 17.0156 79.3672 17.3594C79.6641 17.6953 79.8125 18.0977 79.8125 18.5664C79.8125 19.0273 79.5977 19.5664 79.168 20.1836C78.7461 20.8008 78.2539 21.3477 77.6914 21.8242C77.1367 22.3008 76.5859 22.707 76.0391 23.043C75.5 23.3711 75.0742 23.5352 74.7617 23.5352C74.4492 23.5352 74.1797 23.4023 73.9531 23.1367C73.7266 22.8711 73.6133 22.6172 73.6133 22.375C73.6133 22.125 73.6445 21.9531 73.707 21.8594C73.7773 21.7578 73.8477 21.707 73.918 21.707C73.9883 21.707 74.0312 21.75 74.0469 21.8359C74.2969 21.7578 74.6953 21.5156 75.2422 21.1094C75.7969 20.6953 76.3008 20.2656 76.7539 19.8203C77.207 19.375 77.4336 19.0977 77.4336 18.9883C77.4336 18.8711 77.3633 18.8125 77.2227 18.8125C77.0898 18.8125 76.9062 18.8594 76.6719 18.9531C76.4375 19.0469 76.125 19.2422 75.7344 19.5391C75.3438 19.8281 74.9219 20.2031 74.4688 20.6641C73.375 21.7578 72.1562 23.3086 70.8125 25.3164C70.5 25.7695 70.0586 26.4297 69.4883 27.2969C68.3242 29.0547 67.4922 30.2578 66.9922 30.9062C71 31.9609 73.8633 32.4883 75.582 32.4883C76.3789 32.4883 76.9375 32.3867 77.2578 32.1836C77.375 32.1133 77.4531 32.0781 77.4922 32.0781C77.5312 32.0781 77.5508 32.1094 77.5508 32.1719C77.5508 32.2344 77.5156 32.3281 77.4453 32.4531C77.375 32.5781 77.1992 32.8438 76.918 33.25C76.6445 33.6562 76.4414 33.8984 76.3086 33.9766C75.9258 34.2031 75.2734 34.3164 74.3516 34.3164C73.4375 34.3164 72.5625 34.25 71.7266 34.1172C70.8984 33.9844 70.2305 33.8555 69.7227 33.7305C69.2148 33.5977 68.4609 33.3867 67.4609 33.0977C66.4688 32.8086 65.8164 32.6211 65.5039 32.5352ZM61.2266 31.8203C60.2031 31.8203 59.6914 31.9414 59.6914 32.1836C59.6914 32.2773 59.7773 32.3594 59.9492 32.4297C60.1289 32.5 60.3398 32.5352 60.582 32.5352C61.3398 32.5352 62.0703 32.3359 62.7734 31.9375C62.1719 31.8594 61.6562 31.8203 61.2266 31.8203ZM84.9805 25.0703C85.2148 25.0703 85.4531 25.1758 85.6953 25.3867C85.9453 25.5977 86.0703 25.9219 86.0703 26.3594C86.0703 26.7891 85.918 27.3516 85.6133 28.0469C85.3086 28.7344 84.8906 29.4375 84.3594 30.1562C83.8281 30.8672 83.2422 31.5391 82.6016 32.1719C81.9688 32.7969 81.2812 33.3125 80.5391 33.7188C79.8047 34.1172 79.1367 34.3164 78.5352 34.3164C77.9336 34.3164 77.4492 34.1289 77.082 33.7539C76.7227 33.3711 76.543 32.8438 76.543 32.1719C76.543 31.4922 76.707 30.7422 77.0352 29.9219C77.3711 29.1016 77.8008 28.3789 78.3242 27.7539C78.8477 27.1211 79.4141 26.5547 80.0234 26.0547C81.2969 25.0312 82.4141 24.5195 83.375 24.5195C83.8047 24.5195 84.1289 24.625 84.3477 24.8359C84.4258 24.9062 84.4648 24.9688 84.4648 25.0234V25.0938C84.5742 25.0781 84.7461 25.0703 84.9805 25.0703ZM83.7969 26.6289H83.7148C83.4414 26.6289 83.3047 26.4297 83.3047 26.0312C82.7344 26.2188 82.1367 26.5469 81.5117 27.0156C80.8867 27.4844 80.3281 28.0391 79.8359 28.6797C78.8359 29.9609 78.3281 31.043 78.3125 31.9258C78.3125 32.3633 78.4727 32.582 78.793 32.582C79.1133 32.582 79.5898 32.3711 80.2227 31.9492C80.8555 31.5273 81.4805 30.9258 82.0977 30.1445C82.7227 29.3633 83.1875 28.6875 83.4922 28.1172C83.8047 27.5391 83.9609 27.1484 83.9609 26.9453C83.9609 26.7344 83.9062 26.6289 83.7969 26.6289ZM95.5859 24.9766C95.5859 25.5156 95.2852 26.3047 94.6836 27.3438C94.082 28.375 93.3086 29.4219 92.3633 30.4844C91.4258 31.5469 90.4297 32.4688 89.375 33.25C88.3203 34.0234 87.4961 34.4102 86.9023 34.4102C86.582 34.4102 86.2891 34.293 86.0234 34.0586C85.7578 33.8242 85.625 33.4531 85.625 32.9453C85.625 32.4297 85.8672 31.6211 86.3516 30.5195C86.8359 29.418 87.3125 28.4883 87.7812 27.7305C87.3672 28.0352 87.1133 28.1875 87.0195 28.1875C86.9336 28.1875 86.8203 28.0859 86.6797 27.8828C86.5469 27.6797 86.4805 27.5234 86.4805 27.4141C86.4805 27.2969 86.5 27.2109 86.5391 27.1562C88.0781 25.4453 89.1641 24.5898 89.7969 24.5898C90.0625 24.5898 90.2852 24.668 90.4648 24.8242C90.6445 24.9805 90.7344 25.168 90.7344 25.3867C90.7344 25.6055 90.4688 26.2344 89.9375 27.2734C89.4062 28.3125 88.875 29.3633 88.3438 30.4258C87.8125 31.4805 87.5469 32.1445 87.5469 32.418C87.5469 32.4648 87.5703 32.4883 87.6172 32.4883C87.8203 32.4883 88.3672 32.0859 89.2578 31.2812C90.1562 30.4688 90.8828 29.7148 91.4375 29.0195C91.9922 28.3242 92.4766 27.625 92.8906 26.9219C93.3125 26.2188 93.5234 25.7578 93.5234 25.5391C93.5234 25.3203 93.4766 25.1406 93.3828 25C93.2969 24.8516 93.2539 24.6953 93.2539 24.5312C93.2539 24.3594 93.3672 24.1719 93.5938 23.9688C93.8281 23.7578 94.125 23.6523 94.4844 23.6523C95.2188 23.6523 95.5859 24.0938 95.5859 24.9766ZM102.617 25.2344C102.617 25.75 102.406 26.2031 101.984 26.5938C101.57 26.9844 101.098 27.1797 100.566 27.1797C100.395 27.1797 100.281 27.1406 100.227 27.0625C100.172 26.9766 100.145 26.8672 100.145 26.7344C100.145 26.6016 100.16 26.4727 100.191 26.3477C99.9102 26.4414 99.5977 26.5859 99.2539 26.7812C98.9102 26.9766 98.4883 27.2656 97.9883 27.6484C97.4883 28.0312 97.2383 28.3164 97.2383 28.5039C97.2383 28.5664 97.3281 28.5977 97.5078 28.5977C97.6953 28.5977 97.9805 28.5352 98.3633 28.4102C98.7461 28.2773 99.0117 28.2109 99.1602 28.2109C99.3164 28.2109 99.418 28.2188 99.4648 28.2344C99.5664 28.2891 99.6758 28.4102 99.793 28.5977C99.9102 28.7773 99.9688 28.9219 99.9688 29.0312C99.9688 29.1328 99.8672 29.2695 99.6641 29.4414C99.4609 29.6133 99.2305 29.7461 98.9727 29.8398C98.7148 29.9258 98.543 29.9922 98.457 30.0391C96.8086 30.9609 95.9844 31.5938 95.9844 31.9375C95.9844 32.5469 96.5039 32.8516 97.543 32.8516C98.207 32.8516 98.875 32.6406 99.5469 32.2188C100.117 31.8594 100.629 31.4961 101.082 31.1289C101.543 30.7539 101.832 30.5234 101.949 30.4375C102.074 30.3516 102.168 30.3086 102.23 30.3086C102.434 30.3086 102.535 30.5352 102.535 30.9883C102.535 31.4414 102.508 31.7422 102.453 31.8906C102.398 32.0312 102.242 32.207 101.984 32.418C100.312 33.7773 98.7305 34.457 97.2383 34.457C96.4414 34.457 95.8047 34.3477 95.3281 34.1289C94.4531 33.7305 94.0156 33.1211 94.0156 32.3008C94.0156 31.2227 94.7617 30.4062 96.2539 29.8516C95.957 29.7188 95.7656 29.5508 95.6797 29.3477C95.5938 29.1367 95.5508 28.8047 95.5508 28.3516C95.5508 27.8906 95.7617 27.4062 96.1836 26.8984C96.6133 26.3828 97.1367 25.9609 97.7539 25.6328C99.1289 24.8906 100.355 24.5195 101.434 24.5195C101.691 24.5195 101.953 24.582 102.219 24.707C102.484 24.832 102.617 25.0078 102.617 25.2344ZM111.887 16.4102C112.262 16.4102 112.59 16.5234 112.871 16.75C113.16 16.9688 113.305 17.2969 113.305 17.7344C113.305 18.1719 113.062 18.8594 112.578 19.7969C112.094 20.7266 111.512 21.6797 110.832 22.6562C110.152 23.625 109.383 24.6562 108.523 25.75C107.164 27.4844 105.859 29.043 104.609 30.4258C104.602 30.5195 104.566 30.6953 104.504 30.9531C104.449 31.2031 104.422 31.457 104.422 31.7148C104.422 31.9727 104.539 32.207 104.773 32.418C105.016 32.6211 105.312 32.7227 105.664 32.7227C106.016 32.7227 106.391 32.5977 106.789 32.3477C107.195 32.0977 107.547 31.8203 107.844 31.5156C108.625 30.7109 109.109 30.3086 109.297 30.3086C109.484 30.3086 109.578 30.5938 109.578 31.1641V31.3984C109.578 31.7031 109.523 31.9258 109.414 32.0664C108.758 32.8711 108.02 33.4727 107.199 33.8711C106.379 34.2617 105.602 34.457 104.867 34.457C104.133 34.457 103.574 34.2344 103.191 33.7891C102.809 33.3359 102.617 32.7188 102.617 31.9375C102.617 30.4141 103.023 28.625 103.836 26.5703C104.656 24.5078 105.578 22.7539 106.602 21.3086C108.906 18.043 110.668 16.4102 111.887 16.4102ZM111.359 18.3555C111.359 18.2383 111.32 18.1797 111.242 18.1797C110.969 18.1797 110.25 18.9609 109.086 20.5234C107.922 22.0859 107.078 23.332 106.555 24.2617C106.039 25.1914 105.551 26.3594 105.09 27.7656C106.012 26.6719 107.285 24.9688 108.91 22.6562C110.543 20.3359 111.359 18.9023 111.359 18.3555ZM116.316 25.0703C116.551 25.0703 116.789 25.1758 117.031 25.3867C117.281 25.5977 117.406 25.9219 117.406 26.3594C117.406 26.7891 117.254 27.3516 116.949 28.0469C116.645 28.7344 116.227 29.4375 115.695 30.1562C115.164 30.8672 114.578 31.5391 113.938 32.1719C113.305 32.7969 112.617 33.3125 111.875 33.7188C111.141 34.1172 110.473 34.3164 109.871 34.3164C109.27 34.3164 108.785 34.1289 108.418 33.7539C108.059 33.3711 107.879 32.8438 107.879 32.1719C107.879 31.4922 108.043 30.7422 108.371 29.9219C108.707 29.1016 109.137 28.3789 109.66 27.7539C110.184 27.1211 110.75 26.5547 111.359 26.0547C112.633 25.0312 113.75 24.5195 114.711 24.5195C115.141 24.5195 115.465 24.625 115.684 24.8359C115.762 24.9062 115.801 24.9688 115.801 25.0234V25.0938C115.91 25.0781 116.082 25.0703 116.316 25.0703ZM115.133 26.6289H115.051C114.777 26.6289 114.641 26.4297 114.641 26.0312C114.07 26.2188 113.473 26.5469 112.848 27.0156C112.223 27.4844 111.664 28.0391 111.172 28.6797C110.172 29.9609 109.664 31.043 109.648 31.9258C109.648 32.3633 109.809 32.582 110.129 32.582C110.449 32.582 110.926 32.3711 111.559 31.9492C112.191 31.5273 112.816 30.9258 113.434 30.1445C114.059 29.3633 114.523 28.6875 114.828 28.1172C115.141 27.5391 115.297 27.1484 115.297 26.9453C115.297 26.7344 115.242 26.6289 115.133 26.6289ZM125.105 25.0703C125.34 25.0703 125.578 25.1758 125.82 25.3867C126.07 25.5977 126.195 25.9219 126.195 26.3594C126.195 26.7891 126.043 27.3516 125.738 28.0469C125.434 28.7344 125.016 29.4375 124.484 30.1562C123.953 30.8672 123.367 31.5391 122.727 32.1719C122.094 32.7969 121.406 33.3125 120.664 33.7188C119.93 34.1172 119.262 34.3164 118.66 34.3164C118.059 34.3164 117.574 34.1289 117.207 33.7539C116.848 33.3711 116.668 32.8438 116.668 32.1719C116.668 31.4922 116.832 30.7422 117.16 29.9219C117.496 29.1016 117.926 28.3789 118.449 27.7539C118.973 27.1211 119.539 26.5547 120.148 26.0547C121.422 25.0312 122.539 24.5195 123.5 24.5195C123.93 24.5195 124.254 24.625 124.473 24.8359C124.551 24.9062 124.59 24.9688 124.59 25.0234V25.0938C124.699 25.0781 124.871 25.0703 125.105 25.0703ZM123.922 26.6289H123.84C123.566 26.6289 123.43 26.4297 123.43 26.0312C122.859 26.2188 122.262 26.5469 121.637 27.0156C121.012 27.4844 120.453 28.0391 119.961 28.6797C118.961 29.9609 118.453 31.043 118.438 31.9258C118.438 32.3633 118.598 32.582 118.918 32.582C119.238 32.582 119.715 32.3711 120.348 31.9492C120.98 31.5273 121.605 30.9258 122.223 30.1445C122.848 29.3633 123.312 28.6875 123.617 28.1172C123.93 27.5391 124.086 27.1484 124.086 26.9453C124.086 26.7344 124.031 26.6289 123.922 26.6289ZM125.938 34.0703L125.363 34.0469H125.152C125.074 34.0234 124.992 33.9766 124.906 33.9062C124.812 33.8359 124.742 33.7852 124.695 33.7539C124.648 33.7227 124.625 33.668 124.625 33.5898C124.625 33.5039 124.656 33.3594 124.719 33.1562C126.242 29.8047 127.715 27.125 129.137 25.1172C129.293 24.8984 129.543 24.7344 129.887 24.625C130.238 24.5078 130.578 24.4492 130.906 24.4492C131.102 24.4492 131.199 24.6016 131.199 24.9062C131.199 24.9922 131.168 25.1094 131.105 25.2578C131.043 25.3984 130.887 25.6328 130.637 25.9609C130.387 26.2891 130.09 26.6641 129.746 27.0859C129.402 27.5078 129.207 27.75 129.16 27.8125C130.23 26.7031 131.195 25.8789 132.055 25.3398C132.922 24.793 133.547 24.5195 133.93 24.5195C134.32 24.5195 134.617 24.6328 134.82 24.8594C135.031 25.0781 135.137 25.3164 135.137 25.5742C135.137 25.8242 135.117 26.0352 135.078 26.207C135.047 26.3711 134.984 26.5469 134.891 26.7344C134.797 26.9141 134.715 27.0703 134.645 27.2031C134.582 27.3281 134.473 27.4961 134.316 27.707C134.16 27.9102 134.051 28.0508 133.988 28.1289C133.934 28.207 133.812 28.3555 133.625 28.5742C133.445 28.793 133.348 28.9141 133.332 28.9375C133.551 28.7188 133.855 28.3945 134.246 27.9648C134.637 27.5352 134.965 27.1758 135.23 26.8867C135.504 26.5977 135.844 26.2734 136.25 25.9141C136.656 25.5469 137.035 25.25 137.387 25.0234C138.23 24.4922 139.086 24.2266 139.953 24.2266C140.25 24.2266 140.5 24.3203 140.703 24.5078C140.906 24.6953 141.008 24.9219 141.008 25.1875C141.008 25.4453 140.691 26.0703 140.059 27.0625C139.426 28.0469 138.793 29.0391 138.16 30.0391C137.535 31.0312 137.223 31.6562 137.223 31.9141C137.223 32.2734 137.289 32.4883 137.422 32.5586C137.555 32.6211 137.715 32.6445 137.902 32.6289C138.09 32.6133 138.352 32.4922 138.688 32.2656C139.031 32.0391 139.336 31.8047 139.602 31.5625C140.031 31.1719 140.43 30.793 140.797 30.4258C140.875 30.3555 140.961 30.3203 141.055 30.3203C141.203 30.3203 141.293 30.4336 141.324 30.6602C141.355 30.8867 141.371 31.1211 141.371 31.3633C141.371 31.6055 141.348 31.7734 141.301 31.8672C141.074 32.3047 140.574 32.8398 139.801 33.4727C139.027 34.1055 138.285 34.4219 137.574 34.4219C137.488 34.4219 137.426 34.418 137.387 34.4102C136.582 34.332 136.023 34.1133 135.711 33.7539C135.406 33.3867 135.254 32.9531 135.254 32.4531C135.254 31.9531 135.422 31.3477 135.758 30.6367C136.102 29.9258 136.477 29.2812 136.883 28.7031C137.289 28.125 137.66 27.6055 137.996 27.1445C138.34 26.6758 138.512 26.4219 138.512 26.3828C138.512 26.3438 138.48 26.3242 138.418 26.3242C138.176 26.3242 137.637 26.7148 136.801 27.4961C135.371 28.832 134.137 30.1211 133.098 31.3633C132.824 31.6914 132.176 32.5234 131.152 33.8594C131.035 34.0156 130.848 34.0938 130.59 34.0938C130.34 34.0938 130.078 34.0469 129.805 33.9531C129.531 33.8516 129.395 33.7227 129.395 33.5664C129.395 33.4883 130.016 32.3945 131.258 30.2852C132.5 28.168 133.121 27.0156 133.121 26.8281C133.121 26.6328 133.004 26.5352 132.77 26.5352C132.543 26.5352 132.07 26.8789 131.352 27.5664C129.375 29.457 127.844 31.3359 126.758 33.2031C126.688 33.3125 126.551 33.4844 126.348 33.7188C126.145 33.9531 126.008 34.0703 125.938 34.0703Z" fill="#DA1266"/>
</g>
<defs>
<clipPath id="clip0_67_121">
<rect width="142" height="48" fill="white"/>
</clipPath>
</defs>
</svg>
