<svg width="746" height="408" viewBox="0 0 746 408" fill="none" xmlns="http://www.w3.org/2000/svg">
<rect x="43" y="47" width="703" height="361" rx="48" fill="#FF4466"/>
<g filter="url(#filter0_d_85_13)">
<rect x="18" y="15" width="703" height="361" rx="48" fill="white"/>
</g>
<path d="M481.201 76.2422C483.893 71.4142 485.238 69.0002 487.25 69.0002C489.263 69.0002 490.608 71.4142 493.3 76.2422L493.997 77.4917C494.762 78.8645 495.145 79.5509 495.74 80.0035C496.335 80.4561 497.079 80.624 498.566 80.9597L499.918 81.2657C505.145 82.4494 507.757 83.0401 508.379 85.0397C509 87.0372 507.219 89.1219 503.655 93.289L502.733 94.3664C501.722 95.55 501.214 96.1429 500.986 96.8739C500.759 97.607 500.836 98.3975 500.989 99.9764L501.129 101.415C501.667 106.976 501.936 109.756 500.309 110.99C498.681 112.227 496.233 111.099 491.341 108.846L490.072 108.264C488.683 107.622 487.988 107.303 487.25 107.303C486.513 107.303 485.818 107.622 484.428 108.264L483.162 108.846C478.268 111.099 475.82 112.225 474.194 110.992C472.565 109.756 472.834 106.976 473.372 101.415L473.512 99.9785C473.665 98.3975 473.742 97.607 473.512 96.876C473.287 96.1429 472.779 95.55 471.768 94.3685L470.845 93.289C467.282 89.124 465.501 87.0394 466.122 85.0397C466.744 83.0401 469.358 82.4472 474.585 81.2657L475.937 80.9597C477.422 80.624 478.164 80.4561 478.761 80.0035C479.356 79.5509 479.739 78.8645 480.504 77.4917L481.201 76.2422Z" fill="#FFDA17" stroke="black" stroke-width="5"/>
<path d="M533.201 76.2422C535.893 71.4142 537.238 69.0002 539.25 69.0002C541.263 69.0002 542.608 71.4142 545.3 76.2422L545.997 77.4917C546.762 78.8645 547.145 79.5509 547.74 80.0035C548.335 80.4561 549.079 80.624 550.566 80.9597L551.918 81.2657C557.145 82.4494 559.757 83.0401 560.379 85.0397C561 87.0372 559.219 89.1219 555.655 93.289L554.733 94.3664C553.722 95.55 553.214 96.1429 552.986 96.8739C552.759 97.607 552.836 98.3975 552.989 99.9764L553.129 101.415C553.667 106.976 553.936 109.756 552.309 110.99C550.681 112.227 548.233 111.099 543.341 108.846L542.072 108.264C540.683 107.622 539.988 107.303 539.25 107.303C538.513 107.303 537.818 107.622 536.428 108.264L535.162 108.846C530.268 111.099 527.82 112.225 526.194 110.992C524.565 109.756 524.834 106.976 525.372 101.415L525.512 99.9785C525.665 98.3975 525.742 97.607 525.512 96.876C525.287 96.1429 524.779 95.55 523.768 94.3685L522.845 93.289C519.282 89.124 517.501 87.0394 518.122 85.0397C518.744 83.0401 521.358 82.4472 526.585 81.2657L527.937 80.9597C529.422 80.624 530.164 80.4561 530.761 80.0035C531.356 79.5509 531.739 78.8645 532.504 77.4917L533.201 76.2422Z" fill="#FFDA17" stroke="black" stroke-width="5"/>
<path d="M585.201 76.2422C587.893 71.4142 589.238 69.0002 591.25 69.0002C593.263 69.0002 594.608 71.4142 597.3 76.2422L597.997 77.4917C598.762 78.8645 599.145 79.5509 599.74 80.0035C600.335 80.4561 601.079 80.624 602.566 80.9597L603.918 81.2657C609.145 82.4494 611.757 83.0401 612.379 85.0397C613 87.0372 611.219 89.1219 607.655 93.289L606.733 94.3664C605.722 95.55 605.214 96.1429 604.986 96.8739C604.759 97.607 604.836 98.3975 604.989 99.9764L605.129 101.415C605.667 106.976 605.936 109.756 604.309 110.99C602.681 112.227 600.233 111.099 595.341 108.846L594.072 108.264C592.683 107.622 591.988 107.303 591.25 107.303C590.513 107.303 589.818 107.622 588.428 108.264L587.162 108.846C582.268 111.099 579.82 112.225 578.194 110.992C576.565 109.756 576.834 106.976 577.372 101.415L577.512 99.9785C577.665 98.3975 577.742 97.607 577.512 96.876C577.287 96.1429 576.779 95.55 575.768 94.3685L574.845 93.289C571.282 89.124 569.501 87.0394 570.122 85.0397C570.744 83.0401 573.358 82.4472 578.585 81.2657L579.937 80.9597C581.422 80.624 582.164 80.4561 582.761 80.0035C583.356 79.5509 583.739 78.8645 584.504 77.4917L585.201 76.2422Z" fill="#FFDA17" stroke="black" stroke-width="5"/>
<path d="M637.201 76.2422C639.893 71.4142 641.238 69.0002 643.25 69.0002C645.263 69.0002 646.608 71.4142 649.3 76.2422L649.997 77.4917C650.762 78.8645 651.145 79.5509 651.74 80.0035C652.335 80.4561 653.079 80.624 654.566 80.9597L655.918 81.2657C661.145 82.4494 663.757 83.0401 664.379 85.0397C665 87.0372 663.219 89.1219 659.655 93.289L658.733 94.3664C657.722 95.55 657.214 96.1429 656.987 96.8739C656.759 97.607 656.836 98.3975 656.989 99.9764L657.129 101.415C657.666 106.976 657.936 109.756 656.309 110.99C654.681 112.227 652.233 111.099 647.341 108.846L646.072 108.264C644.683 107.622 643.988 107.303 643.25 107.303C642.513 107.303 641.818 107.622 640.428 108.264L639.162 108.846C634.268 111.099 631.82 112.225 630.194 110.992C628.565 109.756 628.834 106.976 629.372 101.415L629.512 99.9785C629.665 98.3975 629.742 97.607 629.512 96.876C629.287 96.1429 628.779 95.55 627.768 94.3685L626.845 93.289C623.282 89.124 621.501 87.0394 622.122 85.0397C622.744 83.0401 625.358 82.4472 630.585 81.2657L631.937 80.9597C633.422 80.624 634.164 80.4561 634.761 80.0035C635.356 79.5509 635.739 78.8645 636.504 77.4917L637.201 76.2422Z" stroke="black" stroke-width="5"/>
<path d="M429.201 76.2422C431.893 71.4142 433.238 69.0002 435.25 69.0002C437.263 69.0002 438.608 71.4142 441.3 76.2422L441.997 77.4917C442.762 78.8645 443.145 79.5509 443.74 80.0035C444.335 80.4561 445.079 80.624 446.566 80.9597L447.918 81.2657C453.145 82.4494 455.757 83.0401 456.379 85.0397C457 87.0372 455.219 89.1219 451.655 93.289L450.733 94.3664C449.722 95.55 449.214 96.1429 448.986 96.8739C448.759 97.607 448.836 98.3975 448.989 99.9764L449.129 101.415C449.666 106.976 449.936 109.756 448.309 110.99C446.681 112.227 444.233 111.099 439.341 108.846L438.072 108.264C436.683 107.622 435.988 107.303 435.25 107.303C434.513 107.303 433.818 107.622 432.428 108.264L431.162 108.846C426.268 111.099 423.82 112.225 422.194 110.992C420.565 109.756 420.834 106.976 421.372 101.415L421.512 99.9785C421.665 98.3975 421.742 97.607 421.512 96.876C421.287 96.1429 420.779 95.55 419.768 94.3685L418.845 93.289C415.282 89.124 413.501 87.0394 414.122 85.0397C414.744 83.0401 417.358 82.4472 422.585 81.2657L423.937 80.9597C425.422 80.624 426.164 80.4561 426.761 80.0035C427.356 79.5509 427.739 78.8645 428.504 77.4917L429.201 76.2422Z" fill="#FFDA17" stroke="black" stroke-width="5"/>
<path d="M101.582 85.8182H107.386L115.159 104.79H115.466L123.239 85.8182H129.043V112H124.491V94.0128H124.249L117.013 111.923H113.612L106.376 93.9744H106.134V112H101.582V85.8182ZM139.653 112.396C138.409 112.396 137.288 112.175 136.291 111.732C135.303 111.28 134.518 110.615 133.939 109.737C133.368 108.859 133.082 107.777 133.082 106.49C133.082 105.382 133.287 104.466 133.696 103.741C134.105 103.017 134.663 102.438 135.371 102.003C136.078 101.568 136.875 101.24 137.761 101.018C138.656 100.788 139.581 100.622 140.536 100.52C141.686 100.401 142.619 100.294 143.335 100.2C144.051 100.098 144.571 99.9446 144.895 99.7401C145.227 99.527 145.393 99.1989 145.393 98.7557V98.679C145.393 97.7159 145.108 96.9702 144.537 96.4418C143.966 95.9134 143.143 95.6491 142.07 95.6491C140.936 95.6491 140.037 95.8963 139.372 96.3906C138.716 96.8849 138.273 97.4687 138.043 98.142L133.722 97.5284C134.063 96.3352 134.625 95.3381 135.409 94.5369C136.193 93.7273 137.152 93.1222 138.286 92.7216C139.419 92.3125 140.672 92.108 142.044 92.108C142.99 92.108 143.932 92.2188 144.869 92.4403C145.807 92.6619 146.663 93.0284 147.439 93.5398C148.214 94.0426 148.837 94.7287 149.305 95.598C149.783 96.4673 150.021 97.554 150.021 98.858V112H145.572V109.303H145.419C145.138 109.848 144.741 110.359 144.23 110.837C143.727 111.305 143.092 111.685 142.325 111.974C141.567 112.256 140.676 112.396 139.653 112.396ZM140.855 108.996C141.784 108.996 142.589 108.812 143.271 108.446C143.953 108.071 144.477 107.577 144.844 106.963C145.219 106.349 145.406 105.68 145.406 104.956V102.642C145.261 102.761 145.014 102.872 144.665 102.974C144.324 103.077 143.94 103.166 143.514 103.243C143.088 103.32 142.666 103.388 142.249 103.447C141.831 103.507 141.469 103.558 141.162 103.601C140.472 103.695 139.854 103.848 139.308 104.061C138.763 104.274 138.332 104.572 138.017 104.956C137.702 105.331 137.544 105.817 137.544 106.413C137.544 107.266 137.855 107.909 138.477 108.344C139.099 108.778 139.892 108.996 140.855 108.996ZM154.675 112V92.3636H159.162V95.6364H159.366C159.724 94.5028 160.338 93.6293 161.207 93.0156C162.085 92.3935 163.087 92.0824 164.212 92.0824C164.467 92.0824 164.753 92.0952 165.068 92.1207C165.392 92.1378 165.661 92.1676 165.874 92.2102V96.4673C165.678 96.3991 165.366 96.3395 164.94 96.2884C164.523 96.2287 164.118 96.1989 163.726 96.1989C162.882 96.1989 162.124 96.3821 161.45 96.7486C160.786 97.1065 160.261 97.6051 159.878 98.2443C159.494 98.8835 159.303 99.6207 159.303 100.456V112H154.675ZM168.948 112V92.3636H173.576V112H168.948ZM171.275 89.5767C170.542 89.5767 169.911 89.3338 169.383 88.848C168.854 88.3537 168.59 87.7614 168.59 87.071C168.59 86.3722 168.854 85.7798 169.383 85.294C169.911 84.7997 170.542 84.5526 171.275 84.5526C172.016 84.5526 172.647 84.7997 173.167 85.294C173.695 85.7798 173.96 86.3722 173.96 87.071C173.96 87.7614 173.695 88.3537 173.167 88.848C172.647 89.3338 172.016 89.5767 171.275 89.5767ZM183.985 112.396C182.741 112.396 181.62 112.175 180.623 111.732C179.635 111.28 178.85 110.615 178.271 109.737C177.7 108.859 177.414 107.777 177.414 106.49C177.414 105.382 177.619 104.466 178.028 103.741C178.437 103.017 178.995 102.438 179.703 102.003C180.41 101.568 181.207 101.24 182.093 101.018C182.988 100.788 183.913 100.622 184.868 100.52C186.018 100.401 186.951 100.294 187.667 100.2C188.383 100.098 188.903 99.9446 189.227 99.7401C189.559 99.527 189.725 99.1989 189.725 98.7557V98.679C189.725 97.7159 189.44 96.9702 188.869 96.4418C188.298 95.9134 187.475 95.6491 186.402 95.6491C185.268 95.6491 184.369 95.8963 183.704 96.3906C183.048 96.8849 182.605 97.4687 182.375 98.142L178.054 97.5284C178.395 96.3352 178.957 95.3381 179.741 94.5369C180.525 93.7273 181.484 93.1222 182.618 92.7216C183.751 92.3125 185.004 92.108 186.376 92.108C187.322 92.108 188.264 92.2188 189.201 92.4403C190.139 92.6619 190.995 93.0284 191.771 93.5398C192.547 94.0426 193.169 94.7287 193.637 95.598C194.115 96.4673 194.353 97.554 194.353 98.858V112H189.904V109.303H189.751C189.47 109.848 189.074 110.359 188.562 110.837C188.059 111.305 187.424 111.685 186.657 111.974C185.899 112.256 185.008 112.396 183.985 112.396ZM185.187 108.996C186.116 108.996 186.922 108.812 187.603 108.446C188.285 108.071 188.809 107.577 189.176 106.963C189.551 106.349 189.738 105.68 189.738 104.956V102.642C189.593 102.761 189.346 102.872 188.997 102.974C188.656 103.077 188.272 103.166 187.846 103.243C187.42 103.32 186.998 103.388 186.581 103.447C186.163 103.507 185.801 103.558 185.494 103.601C184.804 103.695 184.186 103.848 183.64 104.061C183.095 104.274 182.664 104.572 182.349 104.956C182.034 105.331 181.876 105.817 181.876 106.413C181.876 107.266 182.187 107.909 182.809 108.344C183.431 108.778 184.224 108.996 185.187 108.996Z" fill="black"/>
<path d="M113.642 151.818L109.295 178H106.227L95.3864 157.443H95.1307L91.7045 178H88.5341L92.8807 151.818H95.9489L106.841 172.426H107.097L110.523 151.818H113.642ZM123.336 178.409C121.529 178.409 120.016 177.979 118.797 177.118C117.578 176.257 116.718 175.051 116.215 173.5C115.721 171.949 115.64 170.142 115.972 168.08C116.296 166.068 116.939 164.317 117.902 162.825C118.874 161.325 120.08 160.166 121.52 159.348C122.969 158.521 124.563 158.108 126.301 158.108C128.108 158.108 129.617 158.543 130.827 159.412C132.046 160.273 132.907 161.483 133.409 163.043C133.912 164.594 133.998 166.409 133.665 168.489C133.341 170.483 132.689 172.226 131.709 173.717C130.738 175.2 129.532 176.355 128.091 177.182C126.659 178 125.074 178.409 123.336 178.409ZM123.387 175.699C124.767 175.699 125.965 175.345 126.979 174.638C128.002 173.93 128.828 172.997 129.459 171.838C130.098 170.679 130.529 169.426 130.75 168.08C130.955 166.801 130.946 165.612 130.725 164.513C130.503 163.405 130.03 162.514 129.306 161.841C128.581 161.159 127.563 160.818 126.25 160.818C124.87 160.818 123.664 161.176 122.632 161.892C121.61 162.608 120.783 163.55 120.152 164.717C119.522 165.885 119.1 167.142 118.887 168.489C118.682 169.767 118.686 170.956 118.9 172.055C119.121 173.146 119.594 174.028 120.319 174.702C121.051 175.366 122.074 175.699 123.387 175.699ZM145.609 185.364L150.134 158.364H153.049L152.538 161.483H152.896C153.168 161.142 153.543 160.707 154.021 160.179C154.506 159.642 155.158 159.165 155.977 158.747C156.803 158.321 157.856 158.108 159.134 158.108C160.788 158.108 162.173 158.521 163.289 159.348C164.406 160.175 165.194 161.347 165.654 162.864C166.114 164.381 166.174 166.17 165.833 168.233C165.492 170.312 164.84 172.115 163.877 173.641C162.914 175.158 161.738 176.334 160.349 177.169C158.96 177.996 157.447 178.409 155.81 178.409C154.549 178.409 153.573 178.2 152.883 177.783C152.192 177.357 151.69 176.875 151.374 176.338C151.059 175.793 150.816 175.341 150.646 174.983H150.39L148.651 185.364H145.609ZM151.464 168.182C151.225 169.665 151.225 170.973 151.464 172.107C151.711 173.232 152.201 174.114 152.934 174.753C153.675 175.384 154.651 175.699 155.862 175.699C157.123 175.699 158.227 175.366 159.173 174.702C160.127 174.028 160.911 173.125 161.525 171.991C162.147 170.849 162.577 169.58 162.816 168.182C163.038 166.801 163.029 165.557 162.79 164.449C162.552 163.332 162.066 162.45 161.333 161.803C160.6 161.146 159.594 160.818 158.316 160.818C157.089 160.818 156.002 161.129 155.056 161.751C154.119 162.365 153.343 163.226 152.729 164.334C152.124 165.433 151.702 166.716 151.464 168.182ZM176.99 178.409C175.107 178.409 173.551 177.991 172.324 177.156C171.097 176.312 170.24 175.136 169.755 173.628C169.269 172.111 169.192 170.347 169.525 168.335C169.857 166.324 170.517 164.551 171.506 163.017C172.495 161.474 173.726 160.273 175.201 159.412C176.675 158.543 178.294 158.108 180.059 158.108C181.081 158.108 182.066 158.278 183.012 158.619C183.958 158.96 184.776 159.514 185.466 160.281C186.157 161.04 186.638 162.045 186.911 163.298C187.184 164.551 187.167 166.094 186.86 167.926L186.655 169.205H171.519L171.928 166.597H183.996C184.192 165.489 184.141 164.5 183.843 163.631C183.553 162.761 183.046 162.075 182.321 161.572C181.605 161.07 180.698 160.818 179.598 160.818C178.465 160.818 177.408 161.125 176.428 161.739C175.448 162.344 174.63 163.111 173.973 164.04C173.317 164.96 172.908 165.898 172.746 166.852L172.388 169.102C172.132 170.73 172.171 172.026 172.503 172.989C172.844 173.952 173.436 174.646 174.28 175.072C175.124 175.49 176.181 175.699 177.451 175.699C178.26 175.699 179.006 175.588 179.688 175.366C180.37 175.136 180.979 174.795 181.516 174.344C182.053 173.884 182.505 173.312 182.871 172.631L185.632 173.449C185.164 174.438 184.503 175.307 183.651 176.057C182.807 176.798 181.819 177.378 180.685 177.795C179.56 178.205 178.328 178.409 176.99 178.409ZM194.792 166.188L192.849 178H189.832L193.105 158.364H196.02L195.508 161.432H195.764C196.377 160.435 197.208 159.634 198.257 159.028C199.305 158.415 200.571 158.108 202.054 158.108C203.366 158.108 204.474 158.381 205.377 158.926C206.289 159.463 206.933 160.281 207.308 161.381C207.691 162.472 207.747 163.852 207.474 165.523L205.377 178H202.36L204.406 165.727C204.662 164.193 204.461 162.991 203.805 162.122C203.157 161.253 202.13 160.818 200.724 160.818C199.752 160.818 198.853 161.027 198.027 161.445C197.208 161.862 196.514 162.472 195.943 163.273C195.38 164.074 194.997 165.045 194.792 166.188ZM227.357 162.761L224.493 163.528C224.391 163.068 224.212 162.625 223.956 162.199C223.709 161.764 223.325 161.411 222.805 161.138C222.294 160.857 221.595 160.716 220.709 160.716C219.507 160.716 218.463 160.993 217.577 161.547C216.69 162.092 216.183 162.787 216.055 163.631C215.928 164.372 216.098 164.964 216.567 165.408C217.036 165.851 217.82 166.213 218.919 166.494L221.732 167.21C223.419 167.645 224.621 168.297 225.337 169.166C226.061 170.027 226.308 171.148 226.078 172.528C225.891 173.653 225.401 174.659 224.608 175.545C223.815 176.432 222.801 177.131 221.565 177.642C220.33 178.153 218.953 178.409 217.436 178.409C215.416 178.409 213.822 177.974 212.655 177.105C211.487 176.227 210.865 174.957 210.788 173.295L213.805 172.58C213.882 173.628 214.257 174.42 214.93 174.957C215.612 175.486 216.567 175.75 217.794 175.75C219.2 175.75 220.372 175.452 221.31 174.855C222.247 174.25 222.78 173.526 222.908 172.682C223.036 171.991 222.899 171.416 222.499 170.956C222.107 170.496 221.425 170.151 220.453 169.92L217.334 169.153C215.595 168.719 214.376 168.054 213.678 167.159C212.987 166.264 212.757 165.139 212.987 163.784C213.175 162.676 213.652 161.696 214.419 160.844C215.195 159.991 216.166 159.322 217.334 158.837C218.51 158.351 219.788 158.108 221.169 158.108C223.112 158.108 224.565 158.534 225.528 159.386C226.491 160.23 227.101 161.355 227.357 162.761ZM237.881 178.409C235.998 178.409 234.442 177.991 233.215 177.156C231.988 176.312 231.131 175.136 230.645 173.628C230.159 172.111 230.083 170.347 230.415 168.335C230.748 166.324 231.408 164.551 232.397 163.017C233.385 161.474 234.617 160.273 236.091 159.412C237.566 158.543 239.185 158.108 240.949 158.108C241.972 158.108 242.956 158.278 243.902 158.619C244.848 158.96 245.667 159.514 246.357 160.281C247.047 161.04 247.529 162.045 247.801 163.298C248.074 164.551 248.057 166.094 247.75 167.926L247.546 169.205H232.409L232.819 166.597H244.887C245.083 165.489 245.032 164.5 244.733 163.631C244.444 162.761 243.936 162.075 243.212 161.572C242.496 161.07 241.588 160.818 240.489 160.818C239.355 160.818 238.299 161.125 237.319 161.739C236.338 162.344 235.52 163.111 234.864 164.04C234.208 164.96 233.799 165.898 233.637 166.852L233.279 169.102C233.023 170.73 233.061 172.026 233.394 172.989C233.735 173.952 234.327 174.646 235.171 175.072C236.015 175.49 237.071 175.699 238.341 175.699C239.151 175.699 239.897 175.588 240.578 175.366C241.26 175.136 241.87 174.795 242.407 174.344C242.944 173.884 243.395 173.312 243.762 172.631L246.523 173.449C246.054 174.438 245.394 175.307 244.542 176.057C243.698 176.798 242.709 177.378 241.576 177.795C240.451 178.205 239.219 178.409 237.881 178.409ZM269.029 178.409C267.146 178.409 265.591 177.991 264.363 177.156C263.136 176.312 262.279 175.136 261.794 173.628C261.308 172.111 261.231 170.347 261.564 168.335C261.896 166.324 262.556 164.551 263.545 163.017C264.534 161.474 265.765 160.273 267.24 159.412C268.714 158.543 270.333 158.108 272.098 158.108C273.12 158.108 274.105 158.278 275.051 158.619C275.997 158.96 276.815 159.514 277.505 160.281C278.196 161.04 278.677 162.045 278.95 163.298C279.223 164.551 279.206 166.094 278.899 167.926L278.694 169.205H263.558L263.967 166.597H276.035C276.231 165.489 276.18 164.5 275.882 163.631C275.592 162.761 275.085 162.075 274.36 161.572C273.645 161.07 272.737 160.818 271.637 160.818C270.504 160.818 269.447 161.125 268.467 161.739C267.487 162.344 266.669 163.111 266.012 164.04C265.356 164.96 264.947 165.898 264.785 166.852L264.427 169.102C264.172 170.73 264.21 172.026 264.542 172.989C264.883 173.952 265.475 174.646 266.319 175.072C267.163 175.49 268.22 175.699 269.49 175.699C270.299 175.699 271.045 175.588 271.727 175.366C272.409 175.136 273.018 174.795 273.555 174.344C274.092 173.884 274.544 173.312 274.91 172.631L277.672 173.449C277.203 174.438 276.542 175.307 275.69 176.057C274.846 176.798 273.858 177.378 272.724 177.795C271.599 178.205 270.368 178.409 269.029 178.409ZM286.831 166.188L284.888 178H281.871L285.144 158.364H288.059L287.547 161.432H287.803C288.417 160.435 289.248 159.634 290.296 159.028C291.344 158.415 292.61 158.108 294.093 158.108C295.405 158.108 296.513 158.381 297.417 158.926C298.328 159.463 298.972 160.281 299.347 161.381C299.73 162.472 299.786 163.852 299.513 165.523L297.417 178H294.4L296.445 165.727C296.701 164.193 296.5 162.991 295.844 162.122C295.196 161.253 294.169 160.818 292.763 160.818C291.792 160.818 290.892 161.027 290.066 161.445C289.248 161.862 288.553 162.472 287.982 163.273C287.419 164.074 287.036 165.045 286.831 166.188ZM321.237 178.409C319.353 178.409 317.798 177.991 316.57 177.156C315.343 176.312 314.487 175.136 314.001 173.628C313.515 172.111 313.438 170.347 313.771 168.335C314.103 166.324 314.763 164.551 315.752 163.017C316.741 161.474 317.972 160.273 319.447 159.412C320.921 158.543 322.54 158.108 324.305 158.108C325.327 158.108 326.312 158.278 327.258 158.619C328.204 158.96 329.022 159.514 329.712 160.281C330.403 161.04 330.884 162.045 331.157 163.298C331.43 164.551 331.413 166.094 331.106 167.926L330.901 169.205H315.765L316.174 166.597H328.242C328.438 165.489 328.387 164.5 328.089 163.631C327.799 162.761 327.292 162.075 326.567 161.572C325.852 161.07 324.944 160.818 323.844 160.818C322.711 160.818 321.654 161.125 320.674 161.739C319.694 162.344 318.876 163.111 318.219 164.04C317.563 164.96 317.154 165.898 316.992 166.852L316.634 169.102C316.379 170.73 316.417 172.026 316.749 172.989C317.09 173.952 317.683 174.646 318.526 175.072C319.37 175.49 320.427 175.699 321.697 175.699C322.506 175.699 323.252 175.588 323.934 175.366C324.616 175.136 325.225 174.795 325.762 174.344C326.299 173.884 326.751 173.312 327.117 172.631L329.879 173.449C329.41 174.438 328.749 175.307 327.897 176.057C327.053 176.798 326.065 177.378 324.931 177.795C323.806 178.205 322.575 178.409 321.237 178.409ZM342.004 178.409C340.155 178.409 338.638 177.974 337.453 177.105C336.277 176.236 335.459 175.038 334.999 173.513C334.538 171.987 334.47 170.244 334.794 168.284C335.118 166.29 335.774 164.53 336.763 163.004C337.751 161.47 338.983 160.273 340.457 159.412C341.932 158.543 343.555 158.108 345.328 158.108C346.709 158.108 347.911 158.364 348.933 158.875C349.956 159.386 350.744 160.102 351.298 161.023C351.852 161.943 352.112 163.017 352.078 164.244H349.061C348.976 163.349 348.592 162.557 347.911 161.866C347.237 161.168 346.24 160.818 344.919 160.818C343.743 160.818 342.661 161.125 341.672 161.739C340.683 162.344 339.852 163.2 339.179 164.308C338.506 165.408 338.05 166.699 337.811 168.182C337.555 169.699 337.577 171.02 337.875 172.145C338.173 173.27 338.714 174.143 339.499 174.766C340.283 175.388 341.271 175.699 342.464 175.699C343.249 175.699 343.982 175.562 344.663 175.29C345.345 175.017 345.95 174.625 346.479 174.114C347.007 173.602 347.425 172.989 347.732 172.273H350.749C350.374 173.432 349.773 174.476 348.946 175.405C348.119 176.325 347.118 177.058 345.942 177.604C344.766 178.141 343.453 178.409 342.004 178.409ZM362.293 178.409C360.486 178.409 358.973 177.979 357.754 177.118C356.536 176.257 355.675 175.051 355.172 173.5C354.678 171.949 354.597 170.142 354.929 168.08C355.253 166.068 355.896 164.317 356.859 162.825C357.831 161.325 359.037 160.166 360.477 159.348C361.926 158.521 363.52 158.108 365.259 158.108C367.065 158.108 368.574 158.543 369.784 159.412C371.003 160.273 371.864 161.483 372.366 163.043C372.869 164.594 372.955 166.409 372.622 168.489C372.298 170.483 371.646 172.226 370.666 173.717C369.695 175.2 368.489 176.355 367.048 177.182C365.616 178 364.031 178.409 362.293 178.409ZM362.344 175.699C363.724 175.699 364.922 175.345 365.936 174.638C366.959 173.93 367.786 172.997 368.416 171.838C369.055 170.679 369.486 169.426 369.707 168.08C369.912 166.801 369.903 165.612 369.682 164.513C369.46 163.405 368.987 162.514 368.263 161.841C367.538 161.159 366.52 160.818 365.207 160.818C363.827 160.818 362.621 161.176 361.589 161.892C360.567 162.608 359.74 163.55 359.109 164.717C358.479 165.885 358.057 167.142 357.844 168.489C357.639 169.767 357.643 170.956 357.857 172.055C358.078 173.146 358.551 174.028 359.276 174.702C360.009 175.366 361.031 175.699 362.344 175.699ZM380.628 166.188L378.685 178H375.668L378.941 158.364H381.855L381.344 161.432H381.6C382.213 160.435 383.044 159.634 384.093 159.028C385.141 158.415 386.407 158.108 387.89 158.108C389.202 158.108 390.31 158.381 391.213 158.926C392.125 159.463 392.769 160.281 393.144 161.381C393.527 162.472 393.583 163.852 393.31 165.523L391.213 178H388.196L390.242 165.727C390.498 164.193 390.297 162.991 389.641 162.122C388.993 161.253 387.966 160.818 386.56 160.818C385.588 160.818 384.689 161.027 383.863 161.445C383.044 161.862 382.35 162.472 381.779 163.273C381.216 164.074 380.833 165.045 380.628 166.188ZM408.539 158.364L408.13 160.92H397.954L398.363 158.364H408.539ZM402.096 153.659H405.113L401.994 172.375C401.857 173.227 401.879 173.866 402.058 174.293C402.245 174.71 402.526 174.991 402.901 175.136C403.285 175.273 403.698 175.341 404.141 175.341C404.474 175.341 404.746 175.324 404.96 175.29C405.173 175.247 405.343 175.213 405.471 175.188L405.675 177.898C405.445 177.974 405.134 178.051 404.742 178.128C404.359 178.213 403.886 178.256 403.323 178.256C402.471 178.256 401.67 178.072 400.92 177.706C400.17 177.339 399.594 176.781 399.194 176.031C398.793 175.281 398.687 174.335 398.874 173.193L402.096 153.659ZM409.805 178L413.077 158.364H415.992L415.481 161.33H415.685C416.197 160.358 416.977 159.57 418.025 158.964C419.073 158.359 420.185 158.057 421.362 158.057C421.592 158.057 421.869 158.061 422.192 158.07C422.516 158.07 422.768 158.082 422.947 158.108L422.435 161.176C422.333 161.151 422.103 161.112 421.745 161.061C421.387 161.001 421.004 160.972 420.594 160.972C419.64 160.972 418.758 161.172 417.948 161.572C417.138 161.964 416.461 162.51 415.915 163.209C415.37 163.899 415.021 164.687 414.867 165.574L412.822 178H409.805ZM428.997 178.46C427.752 178.46 426.662 178.226 425.724 177.757C424.787 177.28 424.092 176.594 423.64 175.699C423.189 174.795 423.065 173.705 423.27 172.426C423.466 171.301 423.845 170.389 424.407 169.69C424.97 168.983 425.652 168.429 426.453 168.028C427.262 167.619 428.132 167.317 429.061 167.121C429.998 166.916 430.931 166.759 431.86 166.648C433.071 166.494 434.055 166.375 434.814 166.29C435.572 166.205 436.143 166.064 436.527 165.868C436.91 165.672 437.145 165.335 437.23 164.858V164.756C437.434 163.503 437.268 162.527 436.731 161.828C436.194 161.121 435.235 160.767 433.855 160.767C432.423 160.767 431.225 161.082 430.262 161.713C429.299 162.344 428.588 163.017 428.127 163.733L425.468 162.71C426.167 161.517 427.002 160.588 427.974 159.923C428.946 159.25 429.964 158.781 431.029 158.517C432.095 158.244 433.122 158.108 434.11 158.108C434.741 158.108 435.453 158.185 436.245 158.338C437.038 158.483 437.779 158.786 438.47 159.246C439.169 159.706 439.693 160.401 440.042 161.33C440.4 162.259 440.451 163.503 440.196 165.062L438.048 178H435.031L435.491 175.341H435.338C435.065 175.767 434.647 176.223 434.085 176.709C433.531 177.195 432.828 177.608 431.975 177.949C431.132 178.29 430.139 178.46 428.997 178.46ZM429.866 175.75C431.059 175.75 432.103 175.516 432.998 175.047C433.902 174.578 434.626 173.973 435.172 173.232C435.725 172.49 436.071 171.71 436.207 170.892L436.667 168.131C436.514 168.284 436.211 168.425 435.76 168.553C435.308 168.672 434.797 168.778 434.225 168.872C433.663 168.957 433.113 169.034 432.576 169.102C432.048 169.162 431.622 169.213 431.298 169.256C430.497 169.358 429.734 169.524 429.01 169.754C428.294 169.976 427.689 170.312 427.194 170.764C426.708 171.207 426.406 171.812 426.287 172.58C426.108 173.628 426.359 174.42 427.041 174.957C427.723 175.486 428.664 175.75 429.866 175.75ZM443.555 178L446.827 158.364H449.742L449.231 161.33H449.435C449.947 160.358 450.727 159.57 451.775 158.964C452.823 158.359 453.935 158.057 455.112 158.057C455.342 158.057 455.619 158.061 455.942 158.07C456.266 158.07 456.518 158.082 456.697 158.108L456.185 161.176C456.083 161.151 455.853 161.112 455.495 161.061C455.137 161.001 454.754 160.972 454.344 160.972C453.39 160.972 452.508 161.172 451.698 161.572C450.888 161.964 450.211 162.51 449.665 163.209C449.12 163.899 448.771 164.687 448.617 165.574L446.572 178H443.555ZM475.25 178.409C473.443 178.409 471.93 177.979 470.711 177.118C469.493 176.257 468.632 175.051 468.129 173.5C467.635 171.949 467.554 170.142 467.886 168.08C468.21 166.068 468.853 164.317 469.816 162.825C470.788 161.325 471.994 160.166 473.434 159.348C474.883 158.521 476.477 158.108 478.216 158.108C480.022 158.108 481.531 158.543 482.741 159.412C483.96 160.273 484.821 161.483 485.324 163.043C485.826 164.594 485.912 166.409 485.579 168.489C485.255 170.483 484.603 172.226 483.623 173.717C482.652 175.2 481.446 176.355 480.005 177.182C478.574 178 476.988 178.409 475.25 178.409ZM475.301 175.699C476.681 175.699 477.879 175.345 478.893 174.638C479.916 173.93 480.743 172.997 481.373 171.838C482.012 170.679 482.443 169.426 482.664 168.08C482.869 166.801 482.86 165.612 482.639 164.513C482.417 163.405 481.944 162.514 481.22 161.841C480.495 161.159 479.477 160.818 478.164 160.818C476.784 160.818 475.578 161.176 474.547 161.892C473.524 162.608 472.697 163.55 472.066 164.717C471.436 165.885 471.014 167.142 470.801 168.489C470.596 169.767 470.6 170.956 470.814 172.055C471.035 173.146 471.508 174.028 472.233 174.702C472.966 175.366 473.988 175.699 475.301 175.699ZM500.438 158.364L500.028 160.92H489.852L490.261 158.364H500.438ZM493.994 153.659H497.011L493.892 172.375C493.756 173.227 493.777 173.866 493.956 174.293C494.143 174.71 494.425 174.991 494.8 175.136C495.183 175.273 495.597 175.341 496.04 175.341C496.372 175.341 496.645 175.324 496.858 175.29C497.071 175.247 497.241 175.213 497.369 175.188L497.574 177.898C497.344 177.974 497.033 178.051 496.641 178.128C496.257 178.213 495.784 178.256 495.222 178.256C494.369 178.256 493.568 178.072 492.818 177.706C492.068 177.339 491.493 176.781 491.092 176.031C490.692 175.281 490.585 174.335 490.773 173.193L493.994 153.659ZM501.703 178L504.976 158.364H507.891L507.379 161.33H507.584C508.095 160.358 508.875 159.57 509.923 158.964C510.972 158.359 512.084 158.057 513.26 158.057C513.49 158.057 513.767 158.061 514.091 158.07C514.415 158.07 514.666 158.082 514.845 158.108L514.334 161.176C514.232 161.151 514.001 161.112 513.643 161.061C513.286 161.001 512.902 160.972 512.493 160.972C511.538 160.972 510.656 161.172 509.847 161.572C509.037 161.964 508.359 162.51 507.814 163.209C507.268 163.899 506.919 164.687 506.766 165.574L504.72 178H501.703ZM520.895 178.46C519.651 178.46 518.56 178.226 517.623 177.757C516.685 177.28 515.99 176.594 515.539 175.699C515.087 174.795 514.963 173.705 515.168 172.426C515.364 171.301 515.743 170.389 516.306 169.69C516.868 168.983 517.55 168.429 518.351 168.028C519.161 167.619 520.03 167.317 520.959 167.121C521.897 166.916 522.83 166.759 523.759 166.648C524.969 166.494 525.953 166.375 526.712 166.29C527.471 166.205 528.042 166.064 528.425 165.868C528.809 165.672 529.043 165.335 529.128 164.858V164.756C529.333 163.503 529.167 162.527 528.63 161.828C528.093 161.121 527.134 160.767 525.753 160.767C524.321 160.767 523.124 161.082 522.161 161.713C521.198 162.344 520.486 163.017 520.026 163.733L517.367 162.71C518.066 161.517 518.901 160.588 519.873 159.923C520.844 159.25 521.863 158.781 522.928 158.517C523.993 158.244 525.02 158.108 526.009 158.108C526.64 158.108 527.351 158.185 528.144 158.338C528.936 158.483 529.678 158.786 530.368 159.246C531.067 159.706 531.591 160.401 531.941 161.33C532.299 162.259 532.35 163.503 532.094 165.062L529.946 178H526.929L527.39 175.341H527.236C526.963 175.767 526.546 176.223 525.983 176.709C525.429 177.195 524.726 177.608 523.874 177.949C523.03 178.29 522.037 178.46 520.895 178.46ZM521.765 175.75C522.958 175.75 524.002 175.516 524.897 175.047C525.8 174.578 526.525 173.973 527.07 173.232C527.624 172.49 527.969 171.71 528.105 170.892L528.566 168.131C528.412 168.284 528.11 168.425 527.658 168.553C527.206 168.672 526.695 168.778 526.124 168.872C525.561 168.957 525.012 169.034 524.475 169.102C523.946 169.162 523.52 169.213 523.196 169.256C522.395 169.358 521.632 169.524 520.908 169.754C520.192 169.976 519.587 170.312 519.093 170.764C518.607 171.207 518.304 171.812 518.185 172.58C518.006 173.628 518.257 174.42 518.939 174.957C519.621 175.486 520.563 175.75 521.765 175.75ZM551.919 162.761L549.055 163.528C548.953 163.068 548.774 162.625 548.518 162.199C548.271 161.764 547.888 161.411 547.368 161.138C546.857 160.857 546.158 160.716 545.271 160.716C544.07 160.716 543.026 160.993 542.139 161.547C541.253 162.092 540.746 162.787 540.618 163.631C540.49 164.372 540.661 164.964 541.129 165.408C541.598 165.851 542.382 166.213 543.482 166.494L546.294 167.21C547.982 167.645 549.183 168.297 549.899 169.166C550.624 170.027 550.871 171.148 550.641 172.528C550.453 173.653 549.963 174.659 549.17 175.545C548.378 176.432 547.364 177.131 546.128 177.642C544.892 178.153 543.516 178.409 541.999 178.409C539.979 178.409 538.385 177.974 537.217 177.105C536.05 176.227 535.428 174.957 535.351 173.295L538.368 172.58C538.445 173.628 538.82 174.42 539.493 174.957C540.175 175.486 541.129 175.75 542.357 175.75C543.763 175.75 544.935 175.452 545.872 174.855C546.81 174.25 547.342 173.526 547.47 172.682C547.598 171.991 547.462 171.416 547.061 170.956C546.669 170.496 545.987 170.151 545.016 169.92L541.896 169.153C540.158 168.719 538.939 168.054 538.24 167.159C537.55 166.264 537.32 165.139 537.55 163.784C537.737 162.676 538.214 161.696 538.982 160.844C539.757 159.991 540.729 159.322 541.896 158.837C543.072 158.351 544.351 158.108 545.732 158.108C547.675 158.108 549.128 158.534 550.091 159.386C551.054 160.23 551.663 161.355 551.919 162.761ZM86.8977 229.364L91.4233 202.364H94.3381L93.8267 205.483H94.1847C94.4574 205.142 94.8324 204.707 95.3097 204.179C95.7955 203.642 96.4474 203.165 97.2656 202.747C98.0923 202.321 99.1449 202.108 100.423 202.108C102.077 202.108 103.462 202.521 104.578 203.348C105.695 204.175 106.483 205.347 106.943 206.864C107.403 208.381 107.463 210.17 107.122 212.233C106.781 214.312 106.129 216.115 105.166 217.641C104.203 219.158 103.027 220.334 101.638 221.169C100.249 221.996 98.7358 222.409 97.0994 222.409C95.8381 222.409 94.8622 222.2 94.1719 221.783C93.4815 221.357 92.9787 220.875 92.6634 220.338C92.348 219.793 92.1051 219.341 91.9347 218.983H91.679L89.9403 229.364H86.8977ZM92.7528 212.182C92.5142 213.665 92.5142 214.973 92.7528 216.107C93 217.232 93.4901 218.114 94.223 218.753C94.9645 219.384 95.9403 219.699 97.1506 219.699C98.4119 219.699 99.5156 219.366 100.462 218.702C101.416 218.028 102.2 217.125 102.814 215.991C103.436 214.849 103.866 213.58 104.105 212.182C104.327 210.801 104.318 209.557 104.08 208.449C103.841 207.332 103.355 206.45 102.622 205.803C101.889 205.146 100.884 204.818 99.6051 204.818C98.3778 204.818 97.2912 205.129 96.3452 205.751C95.4077 206.365 94.6321 207.226 94.0185 208.334C93.4134 209.433 92.9915 210.716 92.7528 212.182ZM118.279 222.409C116.396 222.409 114.841 221.991 113.613 221.156C112.386 220.312 111.529 219.136 111.044 217.628C110.558 216.111 110.481 214.347 110.814 212.335C111.146 210.324 111.806 208.551 112.795 207.017C113.784 205.474 115.015 204.273 116.49 203.412C117.964 202.543 119.583 202.108 121.348 202.108C122.37 202.108 123.355 202.278 124.301 202.619C125.247 202.96 126.065 203.514 126.755 204.281C127.446 205.04 127.927 206.045 128.2 207.298C128.473 208.551 128.456 210.094 128.149 211.926L127.944 213.205H112.808L113.217 210.597H125.285C125.481 209.489 125.43 208.5 125.132 207.631C124.842 206.761 124.335 206.075 123.61 205.572C122.895 205.07 121.987 204.818 120.887 204.818C119.754 204.818 118.697 205.125 117.717 205.739C116.737 206.344 115.919 207.111 115.262 208.04C114.606 208.96 114.197 209.898 114.035 210.852L113.677 213.102C113.422 214.73 113.46 216.026 113.792 216.989C114.133 217.952 114.725 218.646 115.569 219.072C116.413 219.49 117.47 219.699 118.74 219.699C119.549 219.699 120.295 219.588 120.977 219.366C121.659 219.136 122.268 218.795 122.805 218.344C123.342 217.884 123.794 217.312 124.16 216.631L126.922 217.449C126.453 218.438 125.792 219.307 124.94 220.057C124.096 220.798 123.108 221.378 121.974 221.795C120.849 222.205 119.618 222.409 118.279 222.409ZM131.121 222L134.394 202.364H137.309L136.797 205.33H137.002C137.513 204.358 138.293 203.57 139.341 202.964C140.39 202.359 141.502 202.057 142.678 202.057C142.908 202.057 143.185 202.061 143.509 202.07C143.833 202.07 144.084 202.082 144.263 202.108L143.752 205.176C143.65 205.151 143.419 205.112 143.061 205.061C142.703 205.001 142.32 204.972 141.911 204.972C140.956 204.972 140.074 205.172 139.265 205.572C138.455 205.964 137.777 206.51 137.232 207.209C136.686 207.899 136.337 208.687 136.184 209.574L134.138 222H131.121ZM161.052 206.761L158.188 207.528C158.086 207.068 157.907 206.625 157.651 206.199C157.404 205.764 157.021 205.411 156.501 205.138C155.989 204.857 155.29 204.716 154.404 204.716C153.202 204.716 152.158 204.993 151.272 205.547C150.386 206.092 149.879 206.787 149.751 207.631C149.623 208.372 149.793 208.964 150.262 209.408C150.731 209.851 151.515 210.213 152.614 210.494L155.427 211.21C157.114 211.645 158.316 212.297 159.032 213.166C159.756 214.027 160.004 215.148 159.773 216.528C159.586 217.653 159.096 218.659 158.303 219.545C157.511 220.432 156.496 221.131 155.261 221.642C154.025 222.153 152.648 222.409 151.131 222.409C149.112 222.409 147.518 221.974 146.35 221.105C145.183 220.227 144.56 218.957 144.484 217.295L147.501 216.58C147.577 217.628 147.952 218.42 148.626 218.957C149.308 219.486 150.262 219.75 151.489 219.75C152.896 219.75 154.067 219.452 155.005 218.855C155.942 218.25 156.475 217.526 156.603 216.682C156.731 215.991 156.594 215.416 156.194 214.956C155.802 214.496 155.12 214.151 154.148 213.92L151.029 213.153C149.29 212.719 148.072 212.054 147.373 211.159C146.683 210.264 146.452 209.139 146.683 207.784C146.87 206.676 147.347 205.696 148.114 204.844C148.89 203.991 149.862 203.322 151.029 202.837C152.205 202.351 153.484 202.108 154.864 202.108C156.808 202.108 158.261 202.534 159.224 203.386C160.187 204.23 160.796 205.355 161.052 206.761ZM171.5 222.409C169.693 222.409 168.18 221.979 166.961 221.118C165.743 220.257 164.882 219.051 164.379 217.5C163.885 215.949 163.804 214.142 164.136 212.08C164.46 210.068 165.103 208.317 166.066 206.825C167.038 205.325 168.244 204.166 169.684 203.348C171.133 202.521 172.727 202.108 174.466 202.108C176.272 202.108 177.781 202.543 178.991 203.412C180.21 204.273 181.071 205.483 181.574 207.043C182.076 208.594 182.162 210.409 181.829 212.489C181.505 214.483 180.853 216.226 179.873 217.717C178.902 219.2 177.696 220.355 176.255 221.182C174.824 222 173.238 222.409 171.5 222.409ZM171.551 219.699C172.931 219.699 174.129 219.345 175.143 218.638C176.166 217.93 176.993 216.997 177.623 215.838C178.262 214.679 178.693 213.426 178.914 212.08C179.119 210.801 179.11 209.612 178.889 208.513C178.667 207.405 178.194 206.514 177.47 205.841C176.745 205.159 175.727 204.818 174.414 204.818C173.034 204.818 171.828 205.176 170.797 205.892C169.774 206.608 168.947 207.55 168.316 208.717C167.686 209.885 167.264 211.142 167.051 212.489C166.846 213.767 166.85 214.956 167.064 216.055C167.285 217.146 167.758 218.028 168.483 218.702C169.216 219.366 170.238 219.699 171.551 219.699ZM189.835 210.188L187.892 222H184.875L188.148 202.364H191.062L190.551 205.432H190.807C191.42 204.435 192.251 203.634 193.3 203.028C194.348 202.415 195.614 202.108 197.097 202.108C198.409 202.108 199.517 202.381 200.42 202.926C201.332 203.463 201.976 204.281 202.351 205.381C202.734 206.472 202.79 207.852 202.517 209.523L200.42 222H197.403L199.449 209.727C199.705 208.193 199.504 206.991 198.848 206.122C198.2 205.253 197.173 204.818 195.767 204.818C194.795 204.818 193.896 205.027 193.07 205.445C192.251 205.862 191.557 206.472 190.986 207.273C190.423 208.074 190.04 209.045 189.835 210.188ZM211.661 222.46C210.417 222.46 209.326 222.226 208.388 221.757C207.451 221.28 206.756 220.594 206.304 219.699C205.853 218.795 205.729 217.705 205.934 216.426C206.13 215.301 206.509 214.389 207.071 213.69C207.634 212.983 208.316 212.429 209.117 212.028C209.926 211.619 210.796 211.317 211.725 211.121C212.662 210.916 213.596 210.759 214.525 210.648C215.735 210.494 216.719 210.375 217.478 210.29C218.236 210.205 218.807 210.064 219.191 209.868C219.574 209.672 219.809 209.335 219.894 208.858V208.756C220.098 207.503 219.932 206.527 219.395 205.828C218.858 205.121 217.9 204.767 216.519 204.767C215.087 204.767 213.89 205.082 212.926 205.713C211.963 206.344 211.252 207.017 210.792 207.733L208.132 206.71C208.831 205.517 209.667 204.588 210.638 203.923C211.61 203.25 212.628 202.781 213.694 202.517C214.759 202.244 215.786 202.108 216.775 202.108C217.405 202.108 218.117 202.185 218.909 202.338C219.702 202.483 220.444 202.786 221.134 203.246C221.833 203.706 222.357 204.401 222.706 205.33C223.064 206.259 223.115 207.503 222.86 209.062L220.712 222H217.695L218.155 219.341H218.002C217.729 219.767 217.311 220.223 216.749 220.709C216.195 221.195 215.492 221.608 214.64 221.949C213.796 222.29 212.803 222.46 211.661 222.46ZM212.53 219.75C213.723 219.75 214.767 219.516 215.662 219.047C216.566 218.578 217.29 217.973 217.836 217.232C218.39 216.49 218.735 215.71 218.871 214.892L219.331 212.131C219.178 212.284 218.875 212.425 218.424 212.553C217.972 212.672 217.461 212.778 216.89 212.872C216.327 212.957 215.777 213.034 215.24 213.102C214.712 213.162 214.286 213.213 213.962 213.256C213.161 213.358 212.398 213.524 211.674 213.754C210.958 213.976 210.353 214.312 209.858 214.764C209.373 215.207 209.07 215.812 208.951 216.58C208.772 217.628 209.023 218.42 209.705 218.957C210.387 219.486 211.328 219.75 212.53 219.75ZM242.685 206.761L239.821 207.528C239.719 207.068 239.54 206.625 239.284 206.199C239.037 205.764 238.653 205.411 238.134 205.138C237.622 204.857 236.923 204.716 236.037 204.716C234.835 204.716 233.791 204.993 232.905 205.547C232.018 206.092 231.511 206.787 231.384 207.631C231.256 208.372 231.426 208.964 231.895 209.408C232.364 209.851 233.148 210.213 234.247 210.494L237.06 211.21C238.747 211.645 239.949 212.297 240.665 213.166C241.389 214.027 241.636 215.148 241.406 216.528C241.219 217.653 240.729 218.659 239.936 219.545C239.143 220.432 238.129 221.131 236.893 221.642C235.658 222.153 234.281 222.409 232.764 222.409C230.744 222.409 229.151 221.974 227.983 221.105C226.815 220.227 226.193 218.957 226.116 217.295L229.134 216.58C229.21 217.628 229.585 218.42 230.259 218.957C230.94 219.486 231.895 219.75 233.122 219.75C234.528 219.75 235.7 219.452 236.638 218.855C237.575 218.25 238.108 217.526 238.236 216.682C238.364 215.991 238.227 215.416 237.827 214.956C237.435 214.496 236.753 214.151 235.781 213.92L232.662 213.153C230.923 212.719 229.705 212.054 229.006 211.159C228.315 210.264 228.085 209.139 228.315 207.784C228.503 206.676 228.98 205.696 229.747 204.844C230.523 203.991 231.494 203.322 232.662 202.837C233.838 202.351 235.116 202.108 236.497 202.108C238.44 202.108 239.893 202.534 240.857 203.386C241.82 204.23 242.429 205.355 242.685 206.761ZM263.078 222.409C261.229 222.409 259.712 221.974 258.527 221.105C257.351 220.236 256.533 219.038 256.073 217.513C255.613 215.987 255.544 214.244 255.868 212.284C256.192 210.29 256.848 208.53 257.837 207.004C258.826 205.47 260.057 204.273 261.532 203.412C263.006 202.543 264.63 202.108 266.402 202.108C267.783 202.108 268.985 202.364 270.007 202.875C271.03 203.386 271.819 204.102 272.373 205.023C272.926 205.943 273.186 207.017 273.152 208.244H270.135C270.05 207.349 269.667 206.557 268.985 205.866C268.311 205.168 267.314 204.818 265.993 204.818C264.817 204.818 263.735 205.125 262.746 205.739C261.757 206.344 260.926 207.2 260.253 208.308C259.58 209.408 259.124 210.699 258.885 212.182C258.63 213.699 258.651 215.02 258.949 216.145C259.248 217.27 259.789 218.143 260.573 218.766C261.357 219.388 262.346 219.699 263.539 219.699C264.323 219.699 265.056 219.562 265.738 219.29C266.419 219.017 267.025 218.625 267.553 218.114C268.081 217.602 268.499 216.989 268.806 216.273H271.823C271.448 217.432 270.847 218.476 270.02 219.405C269.194 220.325 268.192 221.058 267.016 221.604C265.84 222.141 264.527 222.409 263.078 222.409ZM283.367 222.409C281.56 222.409 280.047 221.979 278.828 221.118C277.61 220.257 276.749 219.051 276.246 217.5C275.752 215.949 275.671 214.142 276.003 212.08C276.327 210.068 276.971 208.317 277.934 206.825C278.905 205.325 280.111 204.166 281.551 203.348C283 202.521 284.594 202.108 286.333 202.108C288.14 202.108 289.648 202.543 290.858 203.412C292.077 204.273 292.938 205.483 293.441 207.043C293.944 208.594 294.029 210.409 293.696 212.489C293.373 214.483 292.721 216.226 291.74 217.717C290.769 219.2 289.563 220.355 288.123 221.182C286.691 222 285.105 222.409 283.367 222.409ZM283.418 219.699C284.799 219.699 285.996 219.345 287.01 218.638C288.033 217.93 288.86 216.997 289.49 215.838C290.13 214.679 290.56 213.426 290.782 212.08C290.986 210.801 290.978 209.612 290.756 208.513C290.534 207.405 290.061 206.514 289.337 205.841C288.613 205.159 287.594 204.818 286.282 204.818C284.901 204.818 283.695 205.176 282.664 205.892C281.641 206.608 280.814 207.55 280.184 208.717C279.553 209.885 279.131 211.142 278.918 212.489C278.713 213.767 278.718 214.956 278.931 216.055C279.152 217.146 279.625 218.028 280.35 218.702C281.083 219.366 282.105 219.699 283.418 219.699ZM301.702 210.188L299.759 222H296.742L300.015 202.364H302.93L302.418 205.432H302.674C303.288 204.435 304.119 203.634 305.167 203.028C306.215 202.415 307.481 202.108 308.964 202.108C310.276 202.108 311.384 202.381 312.288 202.926C313.2 203.463 313.843 204.281 314.218 205.381C314.602 206.472 314.657 207.852 314.384 209.523L312.288 222H309.271L311.316 209.727C311.572 208.193 311.371 206.991 310.715 206.122C310.067 205.253 309.04 204.818 307.634 204.818C306.663 204.818 305.763 205.027 304.937 205.445C304.119 205.862 303.424 206.472 302.853 207.273C302.29 208.074 301.907 209.045 301.702 210.188ZM344.392 206.761L341.528 207.528C341.426 207.068 341.247 206.625 340.991 206.199C340.744 205.764 340.36 205.411 339.841 205.138C339.329 204.857 338.63 204.716 337.744 204.716C336.542 204.716 335.498 204.993 334.612 205.547C333.725 206.092 333.218 206.787 333.091 207.631C332.963 208.372 333.133 208.964 333.602 209.408C334.071 209.851 334.855 210.213 335.954 210.494L338.767 211.21C340.454 211.645 341.656 212.297 342.372 213.166C343.096 214.027 343.343 215.148 343.113 216.528C342.926 217.653 342.436 218.659 341.643 219.545C340.85 220.432 339.836 221.131 338.6 221.642C337.365 222.153 335.988 222.409 334.471 222.409C332.451 222.409 330.858 221.974 329.69 221.105C328.522 220.227 327.9 218.957 327.824 217.295L330.841 216.58C330.917 217.628 331.292 218.42 331.966 218.957C332.647 219.486 333.602 219.75 334.829 219.75C336.235 219.75 337.407 219.452 338.345 218.855C339.282 218.25 339.815 217.526 339.943 216.682C340.071 215.991 339.934 215.416 339.534 214.956C339.142 214.496 338.46 214.151 337.488 213.92L334.369 213.153C332.63 212.719 331.412 212.054 330.713 211.159C330.022 210.264 329.792 209.139 330.022 207.784C330.21 206.676 330.687 205.696 331.454 204.844C332.23 203.991 333.201 203.322 334.369 202.837C335.545 202.351 336.824 202.108 338.204 202.108C340.147 202.108 341.6 202.534 342.564 203.386C343.527 204.23 344.136 205.355 344.392 206.761ZM346.734 222L350.007 202.364H353.024L349.751 222H346.734ZM352.436 199.04C351.848 199.04 351.341 198.839 350.915 198.439C350.497 198.038 350.288 197.557 350.288 196.994C350.288 196.432 350.497 195.95 350.915 195.55C351.341 195.149 351.848 194.949 352.436 194.949C353.024 194.949 353.527 195.149 353.945 195.55C354.371 195.95 354.584 196.432 354.584 196.994C354.584 197.557 354.371 198.038 353.945 198.439C353.527 198.839 353.024 199.04 352.436 199.04ZM362.667 222.409C361.022 222.409 359.641 221.996 358.525 221.169C357.408 220.334 356.62 219.158 356.159 217.641C355.708 216.115 355.652 214.312 355.993 212.233C356.343 210.17 356.995 208.381 357.949 206.864C358.912 205.347 360.093 204.175 361.49 203.348C362.888 202.521 364.414 202.108 366.067 202.108C367.346 202.108 368.321 202.321 368.995 202.747C369.676 203.165 370.171 203.642 370.478 204.179C370.784 204.707 371.019 205.142 371.181 205.483H371.436L373.047 195.818H376.064L371.718 222H368.803L369.314 218.983H368.956C368.675 219.341 368.283 219.793 367.78 220.338C367.277 220.875 366.613 221.357 365.786 221.783C364.968 222.2 363.928 222.409 362.667 222.409ZM363.408 219.699C364.618 219.699 365.701 219.384 366.655 218.753C367.618 218.114 368.419 217.232 369.059 216.107C369.698 214.973 370.141 213.665 370.388 212.182C370.635 210.716 370.627 209.433 370.363 208.334C370.098 207.226 369.591 206.365 368.841 205.751C368.091 205.129 367.098 204.818 365.863 204.818C364.593 204.818 363.489 205.146 362.551 205.803C361.614 206.45 360.851 207.332 360.263 208.449C359.675 209.557 359.266 210.801 359.036 212.182C358.806 213.58 358.801 214.849 359.023 215.991C359.245 217.125 359.713 218.028 360.429 218.702C361.154 219.366 362.147 219.699 363.408 219.699ZM383.364 222.46C382.12 222.46 381.029 222.226 380.091 221.757C379.154 221.28 378.459 220.594 378.007 219.699C377.556 218.795 377.432 217.705 377.637 216.426C377.833 215.301 378.212 214.389 378.775 213.69C379.337 212.983 380.019 212.429 380.82 212.028C381.63 211.619 382.499 211.317 383.428 211.121C384.365 210.916 385.299 210.759 386.228 210.648C387.438 210.494 388.422 210.375 389.181 210.29C389.939 210.205 390.51 210.064 390.894 209.868C391.277 209.672 391.512 209.335 391.597 208.858V208.756C391.801 207.503 391.635 206.527 391.098 205.828C390.561 205.121 389.603 204.767 388.222 204.767C386.79 204.767 385.593 205.082 384.63 205.713C383.667 206.344 382.955 207.017 382.495 207.733L379.836 206.71C380.534 205.517 381.37 204.588 382.341 203.923C383.313 203.25 384.331 202.781 385.397 202.517C386.462 202.244 387.489 202.108 388.478 202.108C389.108 202.108 389.82 202.185 390.613 202.338C391.405 202.483 392.147 202.786 392.837 203.246C393.536 203.706 394.06 204.401 394.409 205.33C394.767 206.259 394.819 207.503 394.563 209.062L392.415 222H389.398L389.858 219.341H389.705C389.432 219.767 389.015 220.223 388.452 220.709C387.898 221.195 387.195 221.608 386.343 221.949C385.499 222.29 384.506 222.46 383.364 222.46ZM384.233 219.75C385.426 219.75 386.471 219.516 387.365 219.047C388.269 218.578 388.993 217.973 389.539 217.232C390.093 216.49 390.438 215.71 390.574 214.892L391.034 212.131C390.881 212.284 390.578 212.425 390.127 212.553C389.675 212.672 389.164 212.778 388.593 212.872C388.03 212.957 387.48 213.034 386.944 213.102C386.415 213.162 385.989 213.213 385.665 213.256C384.864 213.358 384.101 213.524 383.377 213.754C382.661 213.976 382.056 214.312 381.561 214.764C381.076 215.207 380.773 215.812 380.654 216.58C380.475 217.628 380.726 218.42 381.408 218.957C382.09 219.486 383.032 219.75 384.233 219.75ZM403.036 218.42L402.575 219.801C402.268 220.773 401.876 221.812 401.399 222.92C400.922 224.028 400.449 225.072 399.98 226.053C399.511 227.033 399.132 227.813 398.842 228.392H396.541C396.729 227.847 396.984 227.126 397.308 226.232C397.632 225.337 397.977 224.339 398.344 223.24C398.71 222.141 399.047 221.011 399.354 219.852L399.763 218.42H403.036ZM423.864 222.46C422.62 222.46 421.529 222.226 420.591 221.757C419.654 221.28 418.959 220.594 418.507 219.699C418.056 218.795 417.932 217.705 418.137 216.426C418.333 215.301 418.712 214.389 419.275 213.69C419.837 212.983 420.519 212.429 421.32 212.028C422.13 211.619 422.999 211.317 423.928 211.121C424.865 210.916 425.799 210.759 426.728 210.648C427.938 210.494 428.922 210.375 429.681 210.29C430.439 210.205 431.01 210.064 431.394 209.868C431.777 209.672 432.012 209.335 432.097 208.858V208.756C432.301 207.503 432.135 206.527 431.598 205.828C431.061 205.121 430.103 204.767 428.722 204.767C427.29 204.767 426.093 205.082 425.13 205.713C424.167 206.344 423.455 207.017 422.995 207.733L420.336 206.71C421.034 205.517 421.87 204.588 422.841 203.923C423.813 203.25 424.831 202.781 425.897 202.517C426.962 202.244 427.989 202.108 428.978 202.108C429.608 202.108 430.32 202.185 431.113 202.338C431.905 202.483 432.647 202.786 433.337 203.246C434.036 203.706 434.56 204.401 434.909 205.33C435.267 206.259 435.319 207.503 435.063 209.062L432.915 222H429.898L430.358 219.341H430.205C429.932 219.767 429.515 220.223 428.952 220.709C428.398 221.195 427.695 221.608 426.843 221.949C425.999 222.29 425.006 222.46 423.864 222.46ZM424.733 219.75C425.926 219.75 426.971 219.516 427.865 219.047C428.769 218.578 429.493 217.973 430.039 217.232C430.593 216.49 430.938 215.71 431.074 214.892L431.534 212.131C431.381 212.284 431.078 212.425 430.627 212.553C430.175 212.672 429.664 212.778 429.093 212.872C428.53 212.957 427.98 213.034 427.444 213.102C426.915 213.162 426.489 213.213 426.165 213.256C425.364 213.358 424.601 213.524 423.877 213.754C423.161 213.976 422.556 214.312 422.061 214.764C421.576 215.207 421.273 215.812 421.154 216.58C420.975 217.628 421.226 218.42 421.908 218.957C422.59 219.486 423.532 219.75 424.733 219.75ZM443.382 210.188L441.439 222H438.422L442.768 195.818H445.786L444.2 205.432H444.456C445.07 204.409 445.888 203.599 446.911 203.003C447.942 202.406 449.237 202.108 450.797 202.108C452.126 202.108 453.247 202.376 454.159 202.913C455.08 203.442 455.727 204.256 456.102 205.355C456.486 206.446 456.541 207.835 456.268 209.523L454.172 222H451.155L453.2 209.727C453.456 208.168 453.247 206.962 452.574 206.109C451.909 205.249 450.874 204.818 449.467 204.818C448.479 204.818 447.558 205.027 446.706 205.445C445.862 205.862 445.146 206.472 444.558 207.273C443.979 208.074 443.587 209.045 443.382 210.188ZM467.797 222.409C465.99 222.409 464.477 221.979 463.258 221.118C462.039 220.257 461.179 219.051 460.676 217.5C460.181 215.949 460.1 214.142 460.433 212.08C460.757 210.068 461.4 208.317 462.363 206.825C463.335 205.325 464.541 204.166 465.981 203.348C467.43 202.521 469.024 202.108 470.762 202.108C472.569 202.108 474.078 202.543 475.288 203.412C476.507 204.273 477.368 205.483 477.87 207.043C478.373 208.594 478.458 210.409 478.126 212.489C477.802 214.483 477.15 216.226 476.17 217.717C475.199 219.2 473.993 220.355 472.552 221.182C471.12 222 469.535 222.409 467.797 222.409ZM467.848 219.699C469.228 219.699 470.426 219.345 471.44 218.638C472.463 217.93 473.289 216.997 473.92 215.838C474.559 214.679 474.99 213.426 475.211 212.08C475.416 210.801 475.407 209.612 475.186 208.513C474.964 207.405 474.491 206.514 473.767 205.841C473.042 205.159 472.024 204.818 470.711 204.818C469.331 204.818 468.125 205.176 467.093 205.892C466.071 206.608 465.244 207.55 464.613 208.717C463.983 209.885 463.561 211.142 463.348 212.489C463.143 213.767 463.147 214.956 463.36 216.055C463.582 217.146 464.055 218.028 464.779 218.702C465.512 219.366 466.535 219.699 467.848 219.699ZM481.172 222L484.445 202.364H487.359L486.848 205.33H487.053C487.564 204.358 488.344 203.57 489.392 202.964C490.44 202.359 491.553 202.057 492.729 202.057C492.959 202.057 493.236 202.061 493.56 202.07C493.884 202.07 494.135 202.082 494.314 202.108L493.803 205.176C493.7 205.151 493.47 205.112 493.112 205.061C492.754 205.001 492.371 204.972 491.962 204.972C491.007 204.972 490.125 205.172 489.315 205.572C488.506 205.964 487.828 206.51 487.283 207.209C486.737 207.899 486.388 208.687 486.234 209.574L484.189 222H481.172ZM500.364 222.46C499.12 222.46 498.029 222.226 497.091 221.757C496.154 221.28 495.459 220.594 495.007 219.699C494.556 218.795 494.432 217.705 494.637 216.426C494.833 215.301 495.212 214.389 495.775 213.69C496.337 212.983 497.019 212.429 497.82 212.028C498.63 211.619 499.499 211.317 500.428 211.121C501.365 210.916 502.299 210.759 503.228 210.648C504.438 210.494 505.422 210.375 506.181 210.29C506.939 210.205 507.51 210.064 507.894 209.868C508.277 209.672 508.512 209.335 508.597 208.858V208.756C508.801 207.503 508.635 206.527 508.098 205.828C507.561 205.121 506.603 204.767 505.222 204.767C503.79 204.767 502.593 205.082 501.63 205.713C500.667 206.344 499.955 207.017 499.495 207.733L496.836 206.71C497.534 205.517 498.37 204.588 499.341 203.923C500.313 203.25 501.331 202.781 502.397 202.517C503.462 202.244 504.489 202.108 505.478 202.108C506.108 202.108 506.82 202.185 507.613 202.338C508.405 202.483 509.147 202.786 509.837 203.246C510.536 203.706 511.06 204.401 511.409 205.33C511.767 206.259 511.819 207.503 511.563 209.062L509.415 222H506.398L506.858 219.341H506.705C506.432 219.767 506.015 220.223 505.452 220.709C504.898 221.195 504.195 221.608 503.343 221.949C502.499 222.29 501.506 222.46 500.364 222.46ZM501.233 219.75C502.426 219.75 503.471 219.516 504.365 219.047C505.269 218.578 505.993 217.973 506.539 217.232C507.093 216.49 507.438 215.71 507.574 214.892L508.034 212.131C507.881 212.284 507.578 212.425 507.127 212.553C506.675 212.672 506.164 212.778 505.593 212.872C505.03 212.957 504.48 213.034 503.944 213.102C503.415 213.162 502.989 213.213 502.665 213.256C501.864 213.358 501.101 213.524 500.377 213.754C499.661 213.976 499.056 214.312 498.561 214.764C498.076 215.207 497.773 215.812 497.654 216.58C497.475 217.628 497.726 218.42 498.408 218.957C499.09 219.486 500.032 219.75 501.233 219.75ZM530.007 210.188L528.064 222H525.047L528.32 202.364H531.234L530.723 205.432H530.979C531.592 204.435 532.423 203.634 533.472 203.028C534.52 202.415 535.786 202.108 537.268 202.108C538.581 202.108 539.689 202.381 540.592 202.926C541.504 203.463 542.148 204.281 542.523 205.381C542.906 206.472 542.962 207.852 542.689 209.523L540.592 222H537.575L539.621 209.727C539.876 208.193 539.676 206.991 539.02 206.122C538.372 205.253 537.345 204.818 535.939 204.818C534.967 204.818 534.068 205.027 533.241 205.445C532.423 205.862 531.729 206.472 531.158 207.273C530.595 208.074 530.212 209.045 530.007 210.188ZM554.211 222.409C552.404 222.409 550.891 221.979 549.672 221.118C548.453 220.257 547.593 219.051 547.09 217.5C546.596 215.949 546.515 214.142 546.847 212.08C547.171 210.068 547.814 208.317 548.777 206.825C549.749 205.325 550.955 204.166 552.395 203.348C553.844 202.521 555.438 202.108 557.176 202.108C558.983 202.108 560.492 202.543 561.702 203.412C562.921 204.273 563.782 205.483 564.284 207.043C564.787 208.594 564.873 210.409 564.54 212.489C564.216 214.483 563.564 216.226 562.584 217.717C561.613 219.2 560.407 220.355 558.966 221.182C557.534 222 555.949 222.409 554.211 222.409ZM554.262 219.699C555.642 219.699 556.84 219.345 557.854 218.638C558.877 217.93 559.703 216.997 560.334 215.838C560.973 214.679 561.404 213.426 561.625 212.08C561.83 210.801 561.821 209.612 561.6 208.513C561.378 207.405 560.905 206.514 560.181 205.841C559.456 205.159 558.438 204.818 557.125 204.818C555.745 204.818 554.539 205.176 553.507 205.892C552.485 206.608 551.658 207.55 551.027 208.717C550.397 209.885 549.975 211.142 549.762 212.489C549.557 213.767 549.561 214.956 549.775 216.055C549.996 217.146 550.469 218.028 551.194 218.702C551.926 219.366 552.949 219.699 554.262 219.699ZM577.711 222L580.984 202.364H583.898L583.387 205.432H583.643C584.231 204.384 585.028 203.57 586.033 202.99C587.048 202.402 588.194 202.108 589.472 202.108C590.751 202.108 591.778 202.402 592.553 202.99C593.329 203.57 593.87 204.384 594.177 205.432H594.381C595.046 204.409 595.933 203.599 597.04 203.003C598.157 202.406 599.418 202.108 600.825 202.108C602.563 202.108 603.901 202.658 604.839 203.757C605.785 204.857 606.066 206.557 605.683 208.858L603.484 222H600.467L602.665 208.858C602.896 207.401 602.665 206.365 601.975 205.751C601.293 205.129 600.415 204.818 599.342 204.818C597.961 204.818 596.823 205.232 595.928 206.058C595.033 206.885 594.484 207.937 594.279 209.216L592.131 222H589.063L591.313 208.551C591.492 207.426 591.279 206.523 590.674 205.841C590.069 205.159 589.191 204.818 588.04 204.818C587.256 204.818 586.489 205.031 585.739 205.457C584.989 205.875 584.346 206.455 583.809 207.196C583.272 207.929 582.927 208.773 582.773 209.727L580.728 222H577.711ZM617.182 222.409C615.298 222.409 613.743 221.991 612.516 221.156C611.288 220.312 610.432 219.136 609.946 217.628C609.46 216.111 609.384 214.347 609.716 212.335C610.048 210.324 610.709 208.551 611.697 207.017C612.686 205.474 613.918 204.273 615.392 203.412C616.866 202.543 618.486 202.108 620.25 202.108C621.273 202.108 622.257 202.278 623.203 202.619C624.149 202.96 624.967 203.514 625.658 204.281C626.348 205.04 626.83 206.045 627.102 207.298C627.375 208.551 627.358 210.094 627.051 211.926L626.847 213.205H611.71L612.119 210.597H624.188C624.384 209.489 624.332 208.5 624.034 207.631C623.744 206.761 623.237 206.075 622.513 205.572C621.797 205.07 620.889 204.818 619.79 204.818C618.656 204.818 617.599 205.125 616.619 205.739C615.639 206.344 614.821 207.111 614.165 208.04C613.509 208.96 613.099 209.898 612.938 210.852L612.58 213.102C612.324 214.73 612.362 216.026 612.695 216.989C613.036 217.952 613.628 218.646 614.472 219.072C615.315 219.49 616.372 219.699 617.642 219.699C618.452 219.699 619.197 219.588 619.879 219.366C620.561 219.136 621.17 218.795 621.707 218.344C622.244 217.884 622.696 217.312 623.062 216.631L625.824 217.449C625.355 218.438 624.695 219.307 623.842 220.057C622.999 220.798 622.01 221.378 620.876 221.795C619.751 222.205 618.52 222.409 617.182 222.409ZM95.5142 266.409C93.8693 266.409 92.4886 265.996 91.3722 265.169C90.2557 264.334 89.4673 263.158 89.0071 261.641C88.5554 260.115 88.5 258.312 88.8409 256.233C89.1903 254.17 89.8423 252.381 90.7969 250.864C91.7599 249.347 92.9403 248.175 94.3381 247.348C95.7358 246.521 97.2614 246.108 98.9148 246.108C100.193 246.108 101.169 246.321 101.842 246.747C102.524 247.165 103.018 247.642 103.325 248.179C103.632 248.707 103.866 249.142 104.028 249.483H104.284L105.895 239.818H108.912L104.565 266H101.651L102.162 262.983H101.804C101.523 263.341 101.131 263.793 100.628 264.338C100.125 264.875 99.4602 265.357 98.6335 265.783C97.8153 266.2 96.7756 266.409 95.5142 266.409ZM96.2557 263.699C97.4659 263.699 98.5483 263.384 99.5028 262.753C100.466 262.114 101.267 261.232 101.906 260.107C102.545 258.973 102.989 257.665 103.236 256.182C103.483 254.716 103.474 253.433 103.21 252.334C102.946 251.226 102.439 250.365 101.689 249.751C100.939 249.129 99.946 248.818 98.7102 248.818C97.4403 248.818 96.3366 249.146 95.3991 249.803C94.4616 250.45 93.6989 251.332 93.1108 252.449C92.5227 253.557 92.1136 254.801 91.8835 256.182C91.6534 257.58 91.6491 258.849 91.8707 259.991C92.0923 261.125 92.5611 262.028 93.277 262.702C94.0014 263.366 94.9943 263.699 96.2557 263.699ZM116.212 266.46C114.967 266.46 113.876 266.226 112.939 265.757C112.001 265.28 111.307 264.594 110.855 263.699C110.403 262.795 110.28 261.705 110.484 260.426C110.68 259.301 111.06 258.389 111.622 257.69C112.185 256.983 112.866 256.429 113.668 256.028C114.477 255.619 115.347 255.317 116.276 255.121C117.213 254.916 118.146 254.759 119.075 254.648C120.286 254.494 121.27 254.375 122.028 254.29C122.787 254.205 123.358 254.064 123.741 253.868C124.125 253.672 124.359 253.335 124.445 252.858V252.756C124.649 251.503 124.483 250.527 123.946 249.828C123.409 249.121 122.45 248.767 121.07 248.767C119.638 248.767 118.44 249.082 117.477 249.713C116.514 250.344 115.803 251.017 115.342 251.733L112.683 250.71C113.382 249.517 114.217 248.588 115.189 247.923C116.161 247.25 117.179 246.781 118.244 246.517C119.31 246.244 120.337 246.108 121.325 246.108C121.956 246.108 122.668 246.185 123.46 246.338C124.253 246.483 124.994 246.786 125.685 247.246C126.384 247.706 126.908 248.401 127.257 249.33C127.615 250.259 127.666 251.503 127.411 253.062L125.263 266H122.246L122.706 263.341H122.553C122.28 263.767 121.862 264.223 121.3 264.709C120.746 265.195 120.043 265.608 119.19 265.949C118.347 266.29 117.354 266.46 116.212 266.46ZM117.081 263.75C118.274 263.75 119.318 263.516 120.213 263.047C121.116 262.578 121.841 261.973 122.386 261.232C122.94 260.49 123.286 259.71 123.422 258.892L123.882 256.131C123.729 256.284 123.426 256.425 122.974 256.553C122.523 256.672 122.011 256.778 121.44 256.872C120.878 256.957 120.328 257.034 119.791 257.102C119.263 257.162 118.837 257.213 118.513 257.256C117.712 257.358 116.949 257.524 116.224 257.754C115.509 257.976 114.903 258.312 114.409 258.764C113.923 259.207 113.621 259.812 113.501 260.58C113.322 261.628 113.574 262.42 114.256 262.957C114.938 263.486 115.879 263.75 117.081 263.75ZM140.895 266L144.167 246.364H147.082L146.571 249.432H146.826C147.414 248.384 148.211 247.57 149.217 246.99C150.231 246.402 151.377 246.108 152.656 246.108C153.934 246.108 154.961 246.402 155.737 246.99C156.512 247.57 157.054 248.384 157.36 249.432H157.565C158.23 248.409 159.116 247.599 160.224 247.003C161.341 246.406 162.602 246.108 164.008 246.108C165.747 246.108 167.085 246.658 168.022 247.757C168.968 248.857 169.25 250.557 168.866 252.858L166.667 266H163.65L165.849 252.858C166.079 251.401 165.849 250.365 165.159 249.751C164.477 249.129 163.599 248.818 162.525 248.818C161.145 248.818 160.007 249.232 159.112 250.058C158.217 250.885 157.667 251.937 157.463 253.216L155.315 266H152.247L154.497 252.551C154.676 251.426 154.463 250.523 153.858 249.841C153.252 249.159 152.375 248.818 151.224 248.818C150.44 248.818 149.673 249.031 148.923 249.457C148.173 249.875 147.529 250.455 146.993 251.196C146.456 251.929 146.11 252.773 145.957 253.727L143.912 266H140.895ZM172.184 266L175.456 246.364H178.473L175.201 266H172.184ZM177.885 243.04C177.297 243.04 176.79 242.839 176.364 242.439C175.946 242.038 175.738 241.557 175.738 240.994C175.738 240.432 175.946 239.95 176.364 239.55C176.79 239.149 177.297 238.949 177.885 238.949C178.473 238.949 178.976 239.149 179.394 239.55C179.82 239.95 180.033 240.432 180.033 240.994C180.033 241.557 179.82 242.038 179.394 242.439C178.976 242.839 178.473 243.04 177.885 243.04ZM188.908 266.409C187.025 266.409 185.469 265.991 184.242 265.156C183.015 264.312 182.158 263.136 181.673 261.628C181.187 260.111 181.11 258.347 181.442 256.335C181.775 254.324 182.435 252.551 183.424 251.017C184.413 249.474 185.644 248.273 187.119 247.412C188.593 246.543 190.212 246.108 191.977 246.108C192.999 246.108 193.984 246.278 194.93 246.619C195.876 246.96 196.694 247.514 197.384 248.281C198.075 249.04 198.556 250.045 198.829 251.298C199.102 252.551 199.085 254.094 198.778 255.926L198.573 257.205H183.437L183.846 254.597H195.914C196.11 253.489 196.059 252.5 195.761 251.631C195.471 250.761 194.964 250.075 194.239 249.572C193.523 249.07 192.616 248.818 191.516 248.818C190.383 248.818 189.326 249.125 188.346 249.739C187.366 250.344 186.548 251.111 185.891 252.04C185.235 252.96 184.826 253.898 184.664 254.852L184.306 257.102C184.05 258.73 184.089 260.026 184.421 260.989C184.762 261.952 185.354 262.646 186.198 263.072C187.042 263.49 188.099 263.699 189.369 263.699C190.178 263.699 190.924 263.588 191.606 263.366C192.288 263.136 192.897 262.795 193.434 262.344C193.971 261.884 194.423 261.312 194.789 260.631L197.55 261.449C197.082 262.438 196.421 263.307 195.569 264.057C194.725 264.798 193.737 265.378 192.603 265.795C191.478 266.205 190.246 266.409 188.908 266.409ZM209.139 266.409C207.494 266.409 206.114 265.996 204.997 265.169C203.881 264.334 203.092 263.158 202.632 261.641C202.18 260.115 202.125 258.312 202.466 256.233C202.815 254.17 203.467 252.381 204.422 250.864C205.385 249.347 206.565 248.175 207.963 247.348C209.361 246.521 210.886 246.108 212.54 246.108C213.818 246.108 214.794 246.321 215.467 246.747C216.149 247.165 216.643 247.642 216.95 248.179C217.257 248.707 217.491 249.142 217.653 249.483H217.909L219.52 239.818H222.537L218.19 266H215.276L215.787 262.983H215.429C215.148 263.341 214.756 263.793 214.253 264.338C213.75 264.875 213.085 265.357 212.259 265.783C211.44 266.2 210.401 266.409 209.139 266.409ZM209.881 263.699C211.091 263.699 212.173 263.384 213.128 262.753C214.091 262.114 214.892 261.232 215.531 260.107C216.17 258.973 216.614 257.665 216.861 256.182C217.108 254.716 217.099 253.433 216.835 252.334C216.571 251.226 216.064 250.365 215.314 249.751C214.564 249.129 213.571 248.818 212.335 248.818C211.065 248.818 209.962 249.146 209.024 249.803C208.087 250.45 207.324 251.332 206.736 252.449C206.148 253.557 205.739 254.801 205.509 256.182C205.278 257.58 205.274 258.849 205.496 259.991C205.717 261.125 206.186 262.028 206.902 262.702C207.626 263.366 208.619 263.699 209.881 263.699ZM232.214 266.409C230.408 266.409 228.895 265.979 227.676 265.118C226.457 264.257 225.597 263.051 225.094 261.5C224.599 259.949 224.518 258.142 224.851 256.08C225.175 254.068 225.818 252.317 226.781 250.825C227.753 249.325 228.959 248.166 230.399 247.348C231.848 246.521 233.442 246.108 235.18 246.108C236.987 246.108 238.496 246.543 239.706 247.412C240.925 248.273 241.786 249.483 242.288 251.043C242.791 252.594 242.876 254.409 242.544 256.489C242.22 258.483 241.568 260.226 240.588 261.717C239.616 263.2 238.411 264.355 236.97 265.182C235.538 266 233.953 266.409 232.214 266.409ZM232.266 263.699C233.646 263.699 234.844 263.345 235.858 262.638C236.881 261.93 237.707 260.997 238.338 259.838C238.977 258.679 239.408 257.426 239.629 256.08C239.834 254.801 239.825 253.612 239.604 252.513C239.382 251.405 238.909 250.514 238.185 249.841C237.46 249.159 236.442 248.818 235.129 248.818C233.749 248.818 232.543 249.176 231.511 249.892C230.489 250.608 229.662 251.55 229.031 252.717C228.401 253.885 227.979 255.142 227.766 256.489C227.561 257.767 227.565 258.956 227.778 260.055C228 261.146 228.473 262.028 229.197 262.702C229.93 263.366 230.953 263.699 232.266 263.699ZM267.527 246.364L267.118 248.92H256.942L257.351 246.364H267.527ZM261.084 241.659H264.101L260.982 260.375C260.846 261.227 260.867 261.866 261.046 262.293C261.233 262.71 261.515 262.991 261.89 263.136C262.273 263.273 262.686 263.341 263.13 263.341C263.462 263.341 263.735 263.324 263.948 263.29C264.161 263.247 264.331 263.213 264.459 263.188L264.664 265.898C264.434 265.974 264.123 266.051 263.73 266.128C263.347 266.213 262.874 266.256 262.311 266.256C261.459 266.256 260.658 266.072 259.908 265.706C259.158 265.339 258.583 264.781 258.182 264.031C257.782 263.281 257.675 262.335 257.863 261.193L261.084 241.659ZM276.764 266.409C274.88 266.409 273.325 265.991 272.098 265.156C270.87 264.312 270.014 263.136 269.528 261.628C269.042 260.111 268.966 258.347 269.298 256.335C269.63 254.324 270.291 252.551 271.279 251.017C272.268 249.474 273.5 248.273 274.974 247.412C276.449 246.543 278.068 246.108 279.832 246.108C280.855 246.108 281.839 246.278 282.785 246.619C283.731 246.96 284.549 247.514 285.24 248.281C285.93 249.04 286.412 250.045 286.684 251.298C286.957 252.551 286.94 254.094 286.633 255.926L286.429 257.205H271.292L271.701 254.597H283.77C283.966 253.489 283.914 252.5 283.616 251.631C283.326 250.761 282.819 250.075 282.095 249.572C281.379 249.07 280.471 248.818 279.372 248.818C278.238 248.818 277.181 249.125 276.201 249.739C275.221 250.344 274.403 251.111 273.747 252.04C273.091 252.96 272.681 253.898 272.52 254.852L272.162 257.102C271.906 258.73 271.944 260.026 272.277 260.989C272.618 261.952 273.21 262.646 274.054 263.072C274.897 263.49 275.954 263.699 277.224 263.699C278.034 263.699 278.779 263.588 279.461 263.366C280.143 263.136 280.752 262.795 281.289 262.344C281.826 261.884 282.278 261.312 282.645 260.631L285.406 261.449C284.937 262.438 284.277 263.307 283.424 264.057C282.581 264.798 281.592 265.378 280.458 265.795C279.333 266.205 278.102 266.409 276.764 266.409ZM294.566 254.188L292.623 266H289.605L292.878 246.364H295.793L295.282 249.432H295.537C296.151 248.435 296.982 247.634 298.03 247.028C299.078 246.415 300.344 246.108 301.827 246.108C303.14 246.108 304.248 246.381 305.151 246.926C306.063 247.463 306.706 248.281 307.081 249.381C307.465 250.472 307.52 251.852 307.248 253.523L305.151 266H302.134L304.179 253.727C304.435 252.193 304.235 250.991 303.578 250.122C302.931 249.253 301.904 248.818 300.498 248.818C299.526 248.818 298.627 249.027 297.8 249.445C296.982 249.862 296.287 250.472 295.716 251.273C295.154 252.074 294.77 253.045 294.566 254.188ZM318.846 266.409C316.962 266.409 315.407 265.991 314.18 265.156C312.952 264.312 312.096 263.136 311.61 261.628C311.124 260.111 311.048 258.347 311.38 256.335C311.712 254.324 312.373 252.551 313.362 251.017C314.35 249.474 315.582 248.273 317.056 247.412C318.531 246.543 320.15 246.108 321.914 246.108C322.937 246.108 323.921 246.278 324.867 246.619C325.813 246.96 326.631 247.514 327.322 248.281C328.012 249.04 328.494 250.045 328.766 251.298C329.039 252.551 329.022 254.094 328.715 255.926L328.511 257.205H313.374L313.783 254.597H325.852C326.048 253.489 325.996 252.5 325.698 251.631C325.408 250.761 324.901 250.075 324.177 249.572C323.461 249.07 322.553 248.818 321.454 248.818C320.32 248.818 319.263 249.125 318.283 249.739C317.303 250.344 316.485 251.111 315.829 252.04C315.173 252.96 314.763 253.898 314.602 254.852L314.244 257.102C313.988 258.73 314.026 260.026 314.359 260.989C314.7 261.952 315.292 262.646 316.136 263.072C316.979 263.49 318.036 263.699 319.306 263.699C320.116 263.699 320.862 263.588 321.543 263.366C322.225 263.136 322.835 262.795 323.371 262.344C323.908 261.884 324.36 261.312 324.727 260.631L327.488 261.449C327.019 262.438 326.359 263.307 325.506 264.057C324.663 264.798 323.674 265.378 322.54 265.795C321.415 266.205 320.184 266.409 318.846 266.409ZM331.688 266L334.96 246.364H337.875L337.364 249.33H337.568C338.08 248.358 338.859 247.57 339.908 246.964C340.956 246.359 342.068 246.057 343.244 246.057C343.474 246.057 343.751 246.061 344.075 246.07C344.399 246.07 344.651 246.082 344.83 246.108L344.318 249.176C344.216 249.151 343.986 249.112 343.628 249.061C343.27 249.001 342.886 248.972 342.477 248.972C341.523 248.972 340.641 249.172 339.831 249.572C339.021 249.964 338.344 250.51 337.798 251.209C337.253 251.899 336.903 252.687 336.75 253.574L334.705 266H331.688ZM354.05 273.364L358.576 246.364H361.49L360.979 249.483H361.337C361.61 249.142 361.985 248.707 362.462 248.179C362.948 247.642 363.6 247.165 364.418 246.747C365.245 246.321 366.297 246.108 367.576 246.108C369.229 246.108 370.614 246.521 371.73 247.348C372.847 248.175 373.635 249.347 374.096 250.864C374.556 252.381 374.615 254.17 374.275 256.233C373.934 258.312 373.282 260.115 372.319 261.641C371.355 263.158 370.179 264.334 368.79 265.169C367.401 265.996 365.888 266.409 364.252 266.409C362.99 266.409 362.015 266.2 361.324 265.783C360.634 265.357 360.131 264.875 359.816 264.338C359.5 263.793 359.257 263.341 359.087 262.983H358.831L357.093 273.364H354.05ZM359.905 256.182C359.667 257.665 359.667 258.973 359.905 260.107C360.152 261.232 360.642 262.114 361.375 262.753C362.117 263.384 363.093 263.699 364.303 263.699C365.564 263.699 366.668 263.366 367.614 262.702C368.569 262.028 369.353 261.125 369.966 259.991C370.588 258.849 371.019 257.58 371.257 256.182C371.479 254.801 371.471 253.557 371.232 252.449C370.993 251.332 370.507 250.45 369.775 249.803C369.042 249.146 368.036 248.818 366.757 248.818C365.53 248.818 364.444 249.129 363.498 249.751C362.56 250.365 361.784 251.226 361.171 252.334C360.566 253.433 360.144 254.716 359.905 256.182ZM382.977 266.46C381.733 266.46 380.642 266.226 379.705 265.757C378.767 265.28 378.072 264.594 377.621 263.699C377.169 262.795 377.045 261.705 377.25 260.426C377.446 259.301 377.825 258.389 378.388 257.69C378.95 256.983 379.632 256.429 380.433 256.028C381.243 255.619 382.112 255.317 383.041 255.121C383.979 254.916 384.912 254.759 385.841 254.648C387.051 254.494 388.036 254.375 388.794 254.29C389.553 254.205 390.124 254.064 390.507 253.868C390.891 253.672 391.125 253.335 391.21 252.858V252.756C391.415 251.503 391.249 250.527 390.712 249.828C390.175 249.121 389.216 248.767 387.835 248.767C386.403 248.767 385.206 249.082 384.243 249.713C383.28 250.344 382.568 251.017 382.108 251.733L379.449 250.71C380.148 249.517 380.983 248.588 381.955 247.923C382.926 247.25 383.945 246.781 385.01 246.517C386.075 246.244 387.102 246.108 388.091 246.108C388.722 246.108 389.433 246.185 390.226 246.338C391.018 246.483 391.76 246.786 392.45 247.246C393.149 247.706 393.673 248.401 394.023 249.33C394.381 250.259 394.432 251.503 394.176 253.062L392.028 266H389.011L389.472 263.341H389.318C389.045 263.767 388.628 264.223 388.065 264.709C387.511 265.195 386.808 265.608 385.956 265.949C385.112 266.29 384.119 266.46 382.977 266.46ZM383.847 263.75C385.04 263.75 386.084 263.516 386.979 263.047C387.882 262.578 388.607 261.973 389.152 261.232C389.706 260.49 390.051 259.71 390.188 258.892L390.648 256.131C390.494 256.284 390.192 256.425 389.74 256.553C389.288 256.672 388.777 256.778 388.206 256.872C387.643 256.957 387.094 257.034 386.557 257.102C386.028 257.162 385.602 257.213 385.278 257.256C384.477 257.358 383.714 257.524 382.99 257.754C382.274 257.976 381.669 258.312 381.175 258.764C380.689 259.207 380.386 259.812 380.267 260.58C380.088 261.628 380.339 262.42 381.021 262.957C381.703 263.486 382.645 263.75 383.847 263.75ZM397.535 266L400.808 246.364H403.723L403.211 249.33H403.416C403.927 248.358 404.707 247.57 405.755 246.964C406.804 246.359 407.916 246.057 409.092 246.057C409.322 246.057 409.599 246.061 409.923 246.07C410.247 246.07 410.498 246.082 410.677 246.108L410.166 249.176C410.064 249.151 409.833 249.112 409.475 249.061C409.118 249.001 408.734 248.972 408.325 248.972C407.37 248.972 406.488 249.172 405.679 249.572C404.869 249.964 404.191 250.51 403.646 251.209C403.1 251.899 402.751 252.687 402.598 253.574L400.552 266H397.535ZM418.584 266.409C416.701 266.409 415.145 265.991 413.918 265.156C412.691 264.312 411.834 263.136 411.348 261.628C410.863 260.111 410.786 258.347 411.118 256.335C411.451 254.324 412.111 252.551 413.1 251.017C414.088 249.474 415.32 248.273 416.794 247.412C418.269 246.543 419.888 246.108 421.652 246.108C422.675 246.108 423.659 246.278 424.605 246.619C425.551 246.96 426.37 247.514 427.06 248.281C427.75 249.04 428.232 250.045 428.505 251.298C428.777 252.551 428.76 254.094 428.453 255.926L428.249 257.205H413.113L413.522 254.597H425.59C425.786 253.489 425.735 252.5 425.436 251.631C425.147 250.761 424.64 250.075 423.915 249.572C423.199 249.07 422.292 248.818 421.192 248.818C420.059 248.818 419.002 249.125 418.022 249.739C417.042 250.344 416.223 251.111 415.567 252.04C414.911 252.96 414.502 253.898 414.34 254.852L413.982 257.102C413.726 258.73 413.765 260.026 414.097 260.989C414.438 261.952 415.03 262.646 415.874 263.072C416.718 263.49 417.775 263.699 419.044 263.699C419.854 263.699 420.6 263.588 421.282 263.366C421.963 263.136 422.573 262.795 423.11 262.344C423.647 261.884 424.098 261.312 424.465 260.631L427.226 261.449C426.757 262.438 426.097 263.307 425.245 264.057C424.401 264.798 423.412 265.378 422.279 265.795C421.154 266.205 419.922 266.409 418.584 266.409ZM434.699 246.364H437.716L434.238 267.432C434.034 268.642 433.646 269.69 433.075 270.577C432.512 271.463 431.771 272.149 430.85 272.635C429.939 273.121 428.852 273.364 427.591 273.364C427.488 273.364 427.386 273.364 427.284 273.364C427.181 273.364 427.079 273.364 426.977 273.364L427.437 270.551C427.539 270.551 427.633 270.551 427.718 270.551C427.804 270.551 427.897 270.551 428 270.551C428.92 270.551 429.645 270.278 430.173 269.733C430.693 269.196 431.042 268.429 431.221 267.432L434.699 246.364ZM437.025 243.091C436.437 243.091 435.93 242.891 435.504 242.49C435.086 242.089 434.877 241.608 434.877 241.045C434.877 240.483 435.086 240.001 435.504 239.601C435.93 239.2 436.437 239 437.025 239C437.613 239 438.116 239.2 438.534 239.601C438.96 240.001 439.173 240.483 439.173 241.045C439.173 241.608 438.96 242.089 438.534 242.49C438.116 242.891 437.613 243.091 437.025 243.091ZM445.696 266.46C444.452 266.46 443.361 266.226 442.423 265.757C441.486 265.28 440.791 264.594 440.339 263.699C439.888 262.795 439.764 261.705 439.969 260.426C440.165 259.301 440.544 258.389 441.107 257.69C441.669 256.983 442.351 256.429 443.152 256.028C443.962 255.619 444.831 255.317 445.76 255.121C446.697 254.916 447.631 254.759 448.56 254.648C449.77 254.494 450.754 254.375 451.513 254.29C452.271 254.205 452.842 254.064 453.226 253.868C453.609 253.672 453.844 253.335 453.929 252.858V252.756C454.134 251.503 453.967 250.527 453.43 249.828C452.893 249.121 451.935 248.767 450.554 248.767C449.122 248.767 447.925 249.082 446.962 249.713C445.999 250.344 445.287 251.017 444.827 251.733L442.168 250.71C442.866 249.517 443.702 248.588 444.673 247.923C445.645 247.25 446.663 246.781 447.729 246.517C448.794 246.244 449.821 246.108 450.81 246.108C451.44 246.108 452.152 246.185 452.945 246.338C453.737 246.483 454.479 246.786 455.169 247.246C455.868 247.706 456.392 248.401 456.741 249.33C457.099 250.259 457.151 251.503 456.895 253.062L454.747 266H451.73L452.19 263.341H452.037C451.764 263.767 451.347 264.223 450.784 264.709C450.23 265.195 449.527 265.608 448.675 265.949C447.831 266.29 446.838 266.46 445.696 266.46ZM446.565 263.75C447.759 263.75 448.803 263.516 449.697 263.047C450.601 262.578 451.325 261.973 451.871 261.232C452.425 260.49 452.77 259.71 452.906 258.892L453.366 256.131C453.213 256.284 452.911 256.425 452.459 256.553C452.007 256.672 451.496 256.778 450.925 256.872C450.362 256.957 449.813 257.034 449.276 257.102C448.747 257.162 448.321 257.213 447.997 257.256C447.196 257.358 446.433 257.524 445.709 257.754C444.993 257.976 444.388 258.312 443.893 258.764C443.408 259.207 443.105 259.812 442.986 260.58C442.807 261.628 443.058 262.42 443.74 262.957C444.422 263.486 445.364 263.75 446.565 263.75ZM469.254 268.52H505.254V232.52H469.254V268.52Z" fill="black"/>
<defs>
<filter id="filter0_d_85_13" x="0.9" y="0.9" width="737.2" height="395.2" filterUnits="userSpaceOnUse" color-interpolation-filters="sRGB">
<feFlood flood-opacity="0" result="BackgroundImageFix"/>
<feColorMatrix in="SourceAlpha" type="matrix" values="0 0 0 0 0 0 0 0 0 0 0 0 0 0 0 0 0 0 127 0" result="hardAlpha"/>
<feOffset dy="3"/>
<feGaussianBlur stdDeviation="8.55"/>
<feComposite in2="hardAlpha" operator="out"/>
<feColorMatrix type="matrix" values="0 0 0 0 0.854167 0 0 0 0 0.0711806 0 0 0 0 0.400035 0 0 0 0.19 0"/>
<feBlend mode="normal" in2="BackgroundImageFix" result="effect1_dropShadow_85_13"/>
<feBlend mode="normal" in="SourceGraphic" in2="effect1_dropShadow_85_13" result="shape"/>
</filter>
</defs>
</svg>
